<svg xmlns="http://www.w3.org/2000/svg" viewBox="0 0 220 220" enable-background="new 0 0 220 220"><g fill="#fff"><path d="m64.1 132.1h7.697c3.351 0 7.07-1.304 7.07-5.232 0-2.44-1.646-4.271-4.12-4.596v-.05c1.938-.61 3.242-2.039 3.242-4.136 0-4.095-3.585-4.78-6.878-4.78h-7.01v18.794h.0001m4.145-15.294h2.816c1.295 0 2.782.401 2.782 1.964 0 1.513-1.328 2.047-2.599 2.047h-3v-4.01m.0001 7.513h3.134c1.354 0 3.343.292 3.343 2.073 0 1.646-1.463 2.206-2.758 2.206h-3.719v-4.279"/><path d="m88.9 132.1h3.661v-6.561c0-4.296-1.246-6.661-5.893-6.661-2.097 0-4.22.686-5.683 2.073l2.123 2.173c.852-.953 1.938-1.538 3.242-1.538 1.379 0 2.549.902 2.549 2.307-3.317 0-8.741.083-8.741 4.546 0 2.599 2.182 3.978 4.597 3.978 1.621 0 3.209-.56 4.086-1.938h.059v1.621m0-5.658v.852c0 1.597-1.462 2.416-3.03 2.416-.869 0-1.88-.451-1.88-1.404 0-1.755 2.707-1.863 3.927-1.863h.986"/><path d="m94.77 132.1h3.978v-6.427c0-1.672.326-3.292 2.391-3.292 2.048 0 2.072 1.913 2.072 3.401v6.318h3.986v-7.113c0-3.451-.743-6.109-4.78-6.109-1.938 0-3.242 1.062-3.769 2.073h-.059v-1.755h-3.819v12.904"/><path d="m109.43 132.1h3.979v-5.391c0-2.574.376-4.328 3.401-4.328.585 0 1.137.108 1.696.267v-3.635c-.367-.109-.878-.134-1.328-.134-1.747 0-2.867.819-3.711 2.391h-.059v-2.073h-3.979v12.903h.0001"/><path d="m120.57 132.1h3.986v-12.904h-3.986v12.904m-.317-16.965c0 1.271 1.036 2.307 2.314 2.307 1.271 0 2.307-1.036 2.307-2.307 0-1.278-1.036-2.315-2.307-2.315-1.278 0-2.314 1.037-2.314 2.315"/><path d="m136.92 120.57c-1.195-1.271-3.076-1.697-4.78-1.697-2.708 0-5.416 1.329-5.416 4.354 0 4.914 6.72 3.16 6.72 5.232 0 .686-.902.928-1.806.928-1.195 0-2.072-.501-2.815-1.404l-2.416 2.674c1.278 1.304 3.268 1.755 5.073 1.755 2.758 0 5.95-.953 5.95-4.246 0-4.913-6.719-3.292-6.719-5.206 0-.77.793-1.062 1.462-1.062.953 0 1.722.367 2.307 1.086l2.44-2.414"/><path d="m151.63 119.19h-3.978v6.427c0 1.671-.318 3.292-2.391 3.292-2.047 0-2.072-1.914-2.072-3.401v-6.318h-3.986v7.112c0 3.451.744 6.109 4.78 6.109 1.938 0 3.242-1.061 3.77-2.072h.058v1.755h3.819v-12.904"/><path d="m153.92 112.02h3.98v20.08h-3.98v-20.08"/><path d="m111.05 87.07c0 .003-.003.009-.005.015m0 0l-.016.017"/><path d="m131.72 96.8c-.035.359-.142.696-.336.979l-5.923 9.151c-.241.368-.746.551-1.062.551h-13.387c.355 0 1.025-.227 1.234-.592l5.917-9.134c.184-.318.283-.645.318-.955.042-.466-.085-.902-.318-1.253l-5.425-8.373c-.45-.761-1.226-.761-1.653-.159-.009.012-.015.026-.023.041 0 0 0 .003-.003.006-.003.002-.003.006-.003.006-.003.003-.003.006-.007.009-.005.012-.012.021-.021.032-.006.012-.017.027-.026.039l-2.633 4.113 2.783 4.295c.242.368.342.811.31 1.244-.026.345-.136.678-.318.955l-5.949 9.184c-.25.366-.719.542-1.062.542h-13.387c.352 0 .968-.191 1.235-.583l5.917-9.128c.21-.342.31-.669.333-.97.035-.475-.105-.893-.324-1.253l-5.943-9.175c-.191-.31-.784-.528-1.144-.552h6.25c2.76 4.051 2.76 4.051 2.76 4.051.358.561.643.938.961 1.156.342.233.993.174 1.479-.428l6.168-9.04c.224-.377.333-.761.333-1.12.009-.41-.118-.793-.333-1.144l-5.902-9.11c-.26-.392-.885-.593-1.235-.593h13.388c.31 0 .775.142 1.076.575l5.943 9.178c.2.319.301.71.301 1.094 0 .386-.101.76-.301 1.062l-2.792 4.321h5.483c.342 0 .802.183 1.067.561l5.917 9.133c.261.402.36.853.337 1.286"/></g><path fill="#293947" d="M1,110l109,109l109-109L110,1L1,110z M218.009,110L110,218.009L1.991,110L110,1.991L218.009,110z"/><g fill="#fff"><path d="m110.5 0h1v1h-1z"/><path d="m108.5 0h1v1h-1z"/><path d="m109.5 1h1v1h-1z"/><path d="m108.5 2h1v1h-1z"/><path d="m110.5 2h1v1h-1z"/><path d="m110.5 217h1v1h-1z"/><path d="m108.5 217h1v1h-1z"/><path d="m109.5 218h1v1h-1z"/><path d="m108.5 219h1v1h-1z"/><path d="m110.5 219h1v1h-1z"/><path d="m2 108.5h1v1h-1z"/><path d="m0 108.5h1v1h-1z"/><path d="m1 109.5h1v1h-1z"/><path d="m0 110.5h1v1h-1z"/><path d="m2 110.5h1v1h-1z"/><path d="m219 108.5h1v1h-1z"/><path d="m217 108.5h1v1h-1z"/><path d="m218 109.5h1v1h-1z"/><path d="m217 110.5h1v1h-1z"/><path d="m219 110.5h1v1h-1z"/></g></svg>