<svg xmlns="http://www.w3.org/2000/svg" viewBox="0 0 220 220" enable-background="new 0 0 220 220"><path fill="#293947" d="M1,110l109,109l109-109L110,1L1,110z M218.009,110L110,218.009L1.991,110L110,1.991L218.009,110z"/><g fill="#fff"><path d="m110.5 0h1v1h-1z"/><path d="m108.5 0h1v1h-1z"/><path d="m109.5 1h1v1h-1z"/><path d="m108.5 2h1v1h-1z"/><path d="m110.5 2h1v1h-1z"/><path d="m110.5 217h1v1h-1z"/><path d="m108.5 217h1v1h-1z"/><path d="m109.5 218h1v1h-1z"/><path d="m108.5 219h1v1h-1z"/><path d="m110.5 219h1v1h-1z"/><path d="m2 108.5h1v1h-1z"/><path d="m0 108.5h1v1h-1z"/><path d="m1 109.5h1v1h-1z"/><path d="m0 110.5h1v1h-1z"/><path d="m2 110.5h1v1h-1z"/><path d="m219 108.5h1v1h-1z"/><path d="m217 108.5h1v1h-1z"/><path d="m218 109.5h1v1h-1z"/><path d="m217 110.5h1v1h-1z"/><path d="m219 110.5h1v1h-1z"/><g fill-rule="evenodd"><path d="m82.57 110.16v-.08c3.39-1.31 4.93-3.85 4.939-6.47 0-2.78-1.47-4.86-3.63-6.02-1.851-1.08-4.01-1.54-7.159-1.7h-1.781c-3.469 0-7.09.3-8.939.69l-.02 29.76c1.539.23 4.08.47 7.479.47 1.16 0 2.24-.08 3.24-.15 4.159-.31 6.94-1.23 8.71-2.62 1.93-1.54 3.16-3.7 3.17-6.4.0001-3.93-2.539-6.56-6.01-7.48m-9.711-9.03c.541-.15 1.381-.23 2.931-.23h.92c2.55.23 3.931 1.47 3.931 3.47 0 1.93-1.311 3.24-3.931 3.7-.47.08-1.01.08-1.62.08h-2.24l.009-7.02m3.841 20.52c-.39.07-.771.07-1.229.07-1.16 0-1.931 0-2.631-.16l.001-8.48h2.311c.54 0 1.08 0 1.55.08 2.69.32 4.7 1.62 4.7 4.17-.011 2.7-2.091 4.01-4.711 4.32"/><path d="m118.03 126.45l6.785.004.007-11.02c0-.618-.002-.231.076-.694.466-2.159 2.243-3.466 4.708-3.469.772.002 1.311.08 1.925.154l.003-6.4c-.461-.076-.846-.154-1.463-.153-2.16-.0001-4.78 1.385-5.942 4.622l-.153-.0001-.303-4.162-5.861-.004c.151 1.928.151 4.086.151 7.327l.067 13.8"/><path d="m147.41 95.7l-.021 30.76 6.86.001.02-30.77h-6.859m-12.5 9.63l-.001 21.12 6.859.001.001-21.13h-6.859"/><path d="m109.54 95.6l-5.4 6.63h-4.7l2.47-4.4 1.31-2.24z"/><path d="m111.69 121.12l.001-6.7c0-5.25-2.24-9.57-9.641-9.57 0 0-.079 0-.149 0-3.94 0-6.87 1.15-8.41 2l1.31 4.4c1.391-.93 3.78-1.7 6.091-1.7.31 0 .699.08 1 .08 2.47.31 3.01 1.77 3.01 2.78v.31c-1.08-.001-2.08 0-3.01.07-6.091.46-9.94 2.54-9.95 7.4 0 3.54 2.62 6.79 7.09 6.79 1 0 2.01-.16 2.85-.46 1.391-.39 2.63-1.16 3.48-2.24h.149l.391 2.16h6.089c-.23-1.15-.31-3.24-.31-5.32m-6.55-2.7c0 .39-.08.85-.159 1.16-.381 1.31-1.62 2.31-3.08 2.54h-.471c-1.54 0-2.77-.85-2.77-2.62s1.31-2.63 3.24-3.08c.93-.24 2-.31 3.239-.31v2.31z"/><path d="m138.15 103.64c2.467.0001 4.01-1.771 4.01-3.931-.072-2.312-1.539-4.01-3.927-4.01-2.47-.0001-4.01 1.693-4.02 4.01 0 2.159 1.542 3.932 3.854 3.932l.079.002"/></g></g></svg>