<svg xmlns="http://www.w3.org/2000/svg" viewBox="0 0 220 220" enable-background="new 0 0 220 220"><g fill="#fff" fill-rule="evenodd"><path d="m166.74 117.15c-.126-.075-.187-.287-.187-.634v-8.04c0-1.247-.175-2.306-.522-3.176-.35-.873-.867-1.576-1.553-2.113-.684-.537-1.531-.921-2.541-1.157-1.01-.239-2.174-.356-3.494-.356-1.619 0-2.992.15-4.112.449-1.122.299-2.038.723-2.747 1.271s-1.226 1.195-1.55 1.944c-.325.747-.485 1.583-.485 2.504v.56h5.753c.052-.273.075-.437.075-.486 0-.074 0-.111 0-.111l.037-.149c.127-.649.42-1.117.879-1.401.462-.287 1.054-.431 1.776-.431.523 0 .965.069 1.327.208.361.135.648.31.858.522.213.212.367.448.469.709.101.262.148.506.148.73 0 .522-.16.933-.484 1.234-.325.298-.698.471-1.123.522-.747.098-1.524.173-2.334.224-.81.049-1.603.118-2.375.207-.772.086-1.508.229-2.205.428-.697.201-1.31.511-1.831.933-.523.425-.942.984-1.253 1.683-.152.342-.267.729-.344 1.168v-19.333h-6.167v27.02h6.167v-4.619c.227 1.361.778 2.466 1.653 3.31 1.183 1.146 3.059 1.719 5.625 1.719.548 0 1.082-.031 1.607-.094.523-.06 1.014-.198 1.476-.41.46-.213.885-.497 1.27-.859.388-.361.718-.841.99-1.441.201.775.537 1.366 1.01 1.777.474.411 1.231.617 2.279.617h3.067v-4.824c-.648 0-1.036-.036-1.16-.112m-5.868-2.801c0 1.045-.324 1.955-.971 2.727-.648.773-1.619 1.16-2.916 1.16-.273 0-.572-.02-.896-.058-.324-.037-.629-.129-.916-.278-.287-.152-.531-.362-.729-.638-.2-.272-.298-.646-.298-1.12 0-.697.212-1.272.634-1.72.422-.448 1.071-.735 1.943-.858.799-.126 1.54-.233 2.226-.319.684-.089 1.327-.256 1.924-.506v1.61z"/><path d="m135.56 102.16v12.82c0 .899-.181 1.602-.543 2.113-.361.512-1.091.767-2.188.767-.922 0-1.582-.245-1.978-.729-.399-.488-.601-1.114-.601-1.89v-13.08h-6.167v10.825c-.273-.465-.617-.873-1.036-1.218-.572-.474-1.269-.861-2.094-1.16-.82-.298-1.754-.56-2.802-.784-.675-.149-1.422-.319-2.242-.506-.824-.187-1.56-.405-2.205-.654-.325-.123-.518-.261-.581-.411-.063-.149-.094-.336-.094-.56 0-.548.255-.921.767-1.123.511-.198 1.042-.298 1.59-.298.523 0 .945.038 1.27.112.324.075.586.192.786.356.199.161.349.373.448.634.098.261.173.58.224.953h5.869c-.026-.25-.037-.425-.037-.522v-.261c0-.075-.006-.144-.021-.207-.011-.063-.032-.181-.054-.355-.202-1.02-.574-1.875-1.123-2.559-.548-.686-1.203-1.234-1.961-1.645-.762-.41-1.597-.698-2.507-.861-.907-.16-1.85-.241-2.819-.241-.648 0-1.286.032-1.912.095-.04.003-.08.005-.121.012-.367.043-.729.092-1.088.155-1.01.175-1.906.486-2.692.934-.784.45-1.419 1.073-1.907 1.868-.484.798-.727 1.832-.727 3.104 0 .169.006.333.015.491-.006-.04-.015-.077-.023-.117-.287-1.295-.76-2.429-1.42-3.402-.661-.971-1.52-1.738-2.579-2.297-1.06-.56-2.349-.842-3.87-.842-1.194 0-2.199.219-3.01.655-.81.436-1.427 1.028-1.849 1.774v-1.944h-5.757v15.09c-.31-.017-.505-.052-.589-.101-.123-.075-.187-.287-.187-.634v-8.04c0-1.247-.173-2.306-.522-3.176-.351-.873-.867-1.576-1.551-2.113-.686-.537-1.533-.921-2.544-1.157-1.01-.239-2.173-.356-3.493-.356-1.62 0-2.989.15-4.112.449-1.119.299-2.035.723-2.744 1.271-.712.548-1.229 1.195-1.554 1.944-.191.446-.33.922-.404 1.431.155.522.267 1.065.333 1.633h5.343c.049-.273.075-.437.075-.486 0-.074 0-.111 0-.111l.037-.149c.123-.649.416-1.117.878-1.401.46-.287 1.051-.431 1.774-.431.522 0 .965.069 1.327.208.361.135.649.31.861.522.213.212.367.448.465.709.101.262.149.506.149.73 0 .522-.161.933-.485 1.234-.324.298-.698.471-1.12.522-.749.098-1.527.173-2.337.224-.496.028-.987.069-1.47.115-.305.026-.605.058-.904.092-.772.086-1.508.229-2.205.428-.698.201-1.307.511-1.832.933-.522.425-.938.984-1.252 1.683-.092.207-.169.434-.231.674h-4.896c-.074.672-.138 1.269-.187 1.795-.051.522-.175.958-.373 1.306-.201.35-.525.617-.974.804-.447.187-1.119.282-2.02.282-1.319 0-2.247-.511-2.784-1.533-.534-1.022-.804-2.616-.804-4.784 0-.723.058-1.415.169-2.076.112-.661.305-1.246.58-1.757.272-.508.66-.916 1.156-1.214.501-.298 1.135-.448 1.907-.448.873 0 1.508.15 1.906.448.399.299.675.549.824.75.224.273.373.652.448 1.14.074.485.138.878.187 1.177h5.868c0-.477-.025-.936-.083-1.384h-.413v-.56c0-.373.025-.729.08-1.073-.015-.061-.035-.121-.053-.179-.313-.984-.82-1.843-1.532-2.581-.709-.735-1.631-1.307-2.765-1.717-1.134-.413-2.524-.618-4.169-.618-1.893 0-3.489.268-4.783.804-1.296.534-2.349 1.269-3.158 2.206-.81.933-1.391 2.029-1.737 3.288-.351 1.26-.525 2.624-.525 4.094 0 3.488.841 6.092 2.523 7.812 1.683 1.717 4.117 2.578 7.308 2.578 1.92 0 3.494-.267 4.729-.804 1.234-.538 2.199-1.22 2.896-2.056.308-.367.574-.754.796-1.156.289.922.764 1.699 1.418 2.334 1.183 1.146 3.058 1.719 5.625 1.719.548 0 1.085-.031 1.607-.094.522-.06 1.017-.198 1.476-.41.463-.213.884-.497 1.271-.859.385-.361.715-.841.991-1.441.197.775.533 1.366 1.01 1.777.473.411 1.234.617 2.279.617h2.495v6.167h6.06v-7.514c.499.648 1.107 1.103 1.832 1.363.723.261 1.593.393 2.615.393 1.645 0 3.01-.275 4.094-.824 1.082-.545 1.94-1.289 2.578-2.222.396-.586.721-1.227.971-1.921.163.795.514 1.553 1.057 2.277.598.795 1.513 1.464 2.747 1.998 1.232.537 2.935.804 5.103.804 2.864 0 5.119-.517 6.764-1.55.956-.6 1.634-1.418 2.033-2.455.152.537.404 1.063.761 1.576.448.648 1.119 1.208 2.02 1.682.896.471 2.115.709 3.664.709.373 0 .795-.02 1.269-.058.474-.037.947-.129 1.421-.278.474-.149.928-.382 1.364-.692.436-.313.815-.755 1.14-1.326v1.869h5.719v-19.923h-6.167zm-53.49 12.186c0 1.045-.322 1.955-.971 2.727-.648.773-1.619 1.16-2.914 1.16-.275 0-.574-.02-.898-.058-.324-.037-.629-.129-.916-.278-.287-.152-.528-.362-.729-.638-.198-.272-.299-.646-.299-1.12 0-.697.213-1.272.639-1.72.421-.448 1.069-.735 1.94-.858.797-.126 1.538-.233 2.225-.319.687-.089 1.326-.256 1.924-.506v1.61m18.341 2.02c-.521 1.123-1.283 1.682-2.279 1.682-.697 0-1.283-.143-1.757-.431-.475-.287-.861-.697-1.16-1.231-.299-.538-.511-1.18-.634-1.927-.124-.747-.188-1.57-.188-2.466 0-2.07.336-3.532 1.01-4.393.675-.858 1.582-1.289 2.73-1.289.896 0 1.632.517 2.205 1.55.571 1.036.858 2.449.858 4.243.0001 1.721-.259 3.139-.783 4.262m18.212.672c-.187.275-.431.485-.729.635-.298.152-.643.249-1.028.301-.387.049-.766.074-1.139.074-.974 0-1.677-.117-2.113-.355-.437-.239-.729-.454-.879-.655-.224-.273-.348-.624-.373-1.045-.026-.424-.063-.798-.111-1.123h-4.974c.109-.818.161-1.665.161-2.541 0-.896-.055-1.76-.164-2.599.055.178.118.345.193.505.298.649.746 1.203 1.343 1.663.6.461 1.341.846 2.226 1.159.884.311 1.912.591 3.083.841.598.123 1.24.25 1.927.373.684.124 1.313.288 1.887.485.646.224.971.623.971 1.197-.0001.45-.094.812-.281 1.085"/><circle cx="132.25" cy="98" r="2.838"/><path d="m128.73 98c0 1.567-1.272 2.837-2.84 2.837-1.564 0-2.836-1.27-2.836-2.837 0-1.568 1.271-2.837 2.836-2.837 1.567 0 2.84 1.269 2.84 2.837"/><circle cx="119.53" cy="98" r="2.836"/><path d="m116 98c0 1.508-1.172 2.739-2.656 2.831-.061.002-.12.006-.181.006-1.567 0-2.837-1.27-2.837-2.837 0-1.568 1.27-2.837 2.837-2.837 1.568 0 2.837 1.269 2.837 2.837"/><circle cx="138.61" cy="98" r="2.836"/></g><path fill="#293947" d="M1,110l109,109l109-109L110,1L1,110z M218.009,110L110,218.009L1.991,110L110,1.991L218.009,110z"/><g fill="#fff"><path d="m110.5 0h1v1h-1z"/><path d="m108.5 0h1v1h-1z"/><path d="m109.5 1h1v1h-1z"/><path d="m108.5 2h1v1h-1z"/><path d="m110.5 2h1v1h-1z"/><path d="m110.5 217h1v1h-1z"/><path d="m108.5 217h1v1h-1z"/><path d="m109.5 218h1v1h-1z"/><path d="m108.5 219h1v1h-1z"/><path d="m110.5 219h1v1h-1z"/><path d="m2 108.5h1v1h-1z"/><path d="m0 108.5h1v1h-1z"/><path d="m1 109.5h1v1h-1z"/><path d="m0 110.5h1v1h-1z"/><path d="m2 110.5h1v1h-1z"/><path d="m219 108.5h1v1h-1z"/><path d="m217 108.5h1v1h-1z"/><path d="m218 109.5h1v1h-1z"/><path d="m217 110.5h1v1h-1z"/><path d="m219 110.5h1v1h-1z"/></g></svg>