<svg xmlns="http://www.w3.org/2000/svg" viewBox="0 0 220 220" enable-background="new 0 0 220 220"><g fill="#fff" fill-rule="evenodd"><path d="m77.29 102.57h-9.943c-1.736 0-3.145 1.407-3.145 3.142v10.733c0 1.735 1.408 3.141 3.145 3.141h9.943c1.737 0 3.146-1.406 3.146-3.141v-10.733c0-1.735-1.409-3.142-3.146-3.142m-2.255 9.643l1.854 5.466-4.425-3.435-4.275 3.405 1.705-5.317-3.947-2.986h4.903l1.555-4.868 1.645 4.868h4.604l-3.619 2.867"/><path d="m115.94 119.63c-2.025 0-3.669-1.642-3.669-3.667v-9.383c0-2.024 1.644-3.665 3.669-3.665h9.07v4.496h-7.899v1.612h7.899v4.498h-7.899v1.612h7.899v4.497h-9.07"/><path d="m95.7 106.58c0-2.024-1.643-3.665-3.669-3.665h-10v16.714h4.842v-12.219h3.991v12.219h4.842l-.0001-13.05"/><path d="m53.939 119.63c-2.025 0-3.669-1.642-3.669-3.665v-9.385c0-2.024 1.644-3.666 3.669-3.666h8.901v4.497h-7.729v7.721h7.729v4.497h-8.901v.0001"/><path d="m95.49 102.91h5.01l3.31 10.18 3.4-10.18h5.01l-5.61 16.72h-5.6l-5.52-16.72"/><path d="m151.87 119.63c2.026 0 3.67-1.642 3.67-3.667v-3.273c0-2.024-1.644-3.666-3.67-3.666l-5.079-.0001v-1.612h8.154v-4.496h-9.326c-2.025 0-3.668 1.641-3.668 3.665v3.274c0 2.024 1.643 3.665 3.668 3.665h5.164v1.613h-8.833v4.497h9.92"/><path d="m169.73 119.63h-9.07c-2.025 0-3.669-1.642-3.669-3.667v-9.383c0-2.024 1.644-3.665 3.669-3.665h9.07v4.496h-7.898v1.612h7.898v4.498h-7.898v1.612h7.898v4.497"/><path d="m137.88 113.28c1.386-.523 2.371-1.862 2.371-3.429v-3.274c0-2.024-1.643-3.665-3.669-3.665h-9.836v16.714h4.842v-9.503l4.331 9.503h4.927l-2.966-6.346m-2.301-4.273h-3.991v-1.612h3.991v1.612"/></g><path fill="#293947" d="M1,110l109,109l109-109L110,1L1,110z M218.009,110L110,218.009L1.991,110L110,1.991L218.009,110z"/><g fill="#fff"><path d="m110.5 0h1v1h-1z"/><path d="m108.5 0h1v1h-1z"/><path d="m109.5 1h1v1h-1z"/><path d="m108.5 2h1v1h-1z"/><path d="m110.5 2h1v1h-1z"/><path d="m110.5 217h1v1h-1z"/><path d="m108.5 217h1v1h-1z"/><path d="m109.5 218h1v1h-1z"/><path d="m108.5 219h1v1h-1z"/><path d="m110.5 219h1v1h-1z"/><path d="m2 108.5h1v1h-1z"/><path d="m0 108.5h1v1h-1z"/><path d="m1 109.5h1v1h-1z"/><path d="m0 110.5h1v1h-1z"/><path d="m2 110.5h1v1h-1z"/><path d="m219 108.5h1v1h-1z"/><path d="m217 108.5h1v1h-1z"/><path d="m218 109.5h1v1h-1z"/><path d="m217 110.5h1v1h-1z"/><path d="m219 110.5h1v1h-1z"/></g></svg>