<svg xmlns="http://www.w3.org/2000/svg" viewBox="0 0 220 220" enable-background="new 0 0 220 220"><g fill="#fff"><path d="m110.53 71.17c-13.68 0-24.87 11.14-24.87 24.86 0 4.26 1.09 8.28 3.01 11.8 4.23 7.74 12.45 13.02 21.86 13.02 6.84 0 13.05-2.8 17.56-7.3 4.51-4.5 7.3-10.7 7.3-17.52.0001-13.72-11.18-24.86-24.86-24.86m10.151 35.51c-2.9-5.26-5.8-10.56-8.7-15.9-.18-.27-.41-.55-.64-.91-.27-.32-.54-.45-.81-.45-.28 0-.55.13-.82.45-.22.36-.45.64-.59.91-2.94 5.34-5.84 10.69-8.74 15.94-.4.64-.86.95-1.4.95-.5 0-.91-.27-1.27-.72-.05-.06-.09-.13-.12-.19-.27-.45-.38-.93-.38-1.53 0-.59.09-1.09.36-1.45 2.99-5.62 6.03-11.19 9.06-16.76.41-.82.95-1.45 1.68-1.95.68-.5 1.4-.72 2.22-.72.72 0 1.45.22 2.13.63.68.45 1.22 1.09 1.63 1.86 3.03 5.57 6.02 11.1 9.06 16.67.13.22.27.49.36.77.09.31.14.63.14.95 0 .68-.14 1.22-.5 1.72-.37.45-.77.72-1.27.72-.59 0-1.09-.31-1.4-.99"/><path d="m83.61 133.99h-5.348c-.097 0-.166 0-.25.027-.014 0-.027.014-.027.014-.056.014-.111.056-.167.083-.055.041-.097.083-.111.139-.027.056-.042.125-.042.207v.929h5.916c.125 0 .236.125.236.236v1.482c0 .125-.11.235-.236.235h-5.916v1.15c0 .028 0 .055.014.083 0 0 0 .013 0 .027.041.041.11.083.208.11.124.028.277.056.485.07.207.013.457.027.734.027h4.447c.11 0 .221.125.221.235v1.469c0 .125-.111.235-.221.235h-4.931c-.569 0-1.081-.055-1.524-.152-.069-.014-.152-.041-.222-.056-.36-.096-.679-.25-.942-.401-.332-.222-.581-.499-.748-.817-.167-.318-.25-.679-.25-1.081v-3.824c0-.402.083-.762.263-1.067.166-.304.429-.554.776-.762.097-.055.193-.097.305-.139.097-.055.222-.097.333-.138.61-.18 1.385-.278 2.341-.278h4.655c.11 0 .222.112.222.222v1.496c0 .114-.111.239-.221.239"/><path d="m92.63 140.75h-4.793c-.553 0-1.053-.042-1.496-.138-.07-.015-.138-.042-.208-.055-.36-.098-.679-.236-.942-.389-.083-.056-.18-.111-.249-.18-.083-.069-.166-.138-.222-.208-.36-.374-.527-.845-.527-1.398v-6.124c0-.11.111-.222.236-.222h2.257c.11 0 .236.112.236.222v6.11c0 .083.014.166.027.221.027.042.069.083.111.112.055.027.152.054.263.083.138.013.304.027.499.027h4.807c.125 0 .236.125.236.235v1.469c.0001.125-.11.235-.235.235"/><path d="m101.73 133.99h-5.347c-.084 0-.167 0-.236.027-.027 0-.027.014-.042.014-.056.014-.111.056-.167.083-.041.041-.083.083-.111.139-.028.056-.041.125-.041.207v.929h5.929c.111 0 .235.125.235.236v1.482c0 .125-.124.235-.235.235h-5.927v1.15c0 .028.013.055.013.083 0 0 .014.013.014.027.027.041.097.083.208.11.111.028.277.056.472.07.222.013.457.027.733.027h4.447c.111 0 .236.125.236.235v1.469c0 .125-.125.235-.236.235h-4.917c-.582 0-1.094-.056-1.538-.152-.069-.014-.138-.041-.208-.056-.36-.096-.679-.25-.957-.401-.318-.222-.567-.499-.733-.817-.167-.318-.25-.679-.25-1.081v-3.824c0-.402.083-.762.25-1.067.18-.304.443-.554.775-.762.098-.055.194-.097.305-.139.111-.055.222-.097.346-.138.596-.18 1.373-.278 2.341-.278h4.642c.111 0 .235.112.235.222v1.496c-.0001.114-.125.239-.236.239"/><g fill-rule="evenodd"><path d="m132.13 138.46c0 .666-.306 1.206-.929 1.648-.609.417-1.414.638-2.396.638h-1.565v-1.551h1.468c.679 0 1.012-.277 1.012-.831v-3.99c0-.263-.07-.471-.222-.596-.153-.125-.43-.18-.831-.18h-1.427v-1.579h1.912c.845 0 1.551.194 2.119.582.568.387.86.914.86 1.551v4.308zm-4.891 2.286h-4.877v-8.728h4.877v1.579h-2.466v5.597h2.466v1.552"/><path d="m121.92 140.75h-2.356v-8.728h2.356v8.728"/></g><path d="m110.56 138.06l.166.374 2.092-5.292c.167-.43.471-.763.817-.97.25-.139.513-.236.791-.25.276-.027.554.014.817.111.347.139.665.403.9.791v.013l3.09 7.731.041.11-.111.042c-.706.236-1.537.097-2.092-.374-.11-.097-.208-.195-.291-.305-.083-.125-.167-.25-.223-.402l-2.035-5.112c-.193.513-.389 1.01-.583 1.524-.471 1.233-.941 2.479-1.372 3.588-.193.512-.582.858-1.039 1.039-.25.098-.513.152-.79.152-.263 0-.526-.055-.789-.152-.472-.18-.873-.513-1.082-1.039l-2.05-5.112c-.194.513-.388 1.039-.596 1.565-.471 1.233-.941 2.467-1.343 3.547-.292.734-1.027 1.136-1.788 1.191-.139 0-.291 0-.429-.014-.152-.027-.277-.055-.415-.111l-.111-.028.04-.11 3.01-7.565v-.014c.234-.471.595-.789.998-.956.235-.083.484-.124.734-.124.249.013.498.069.72.18.416.208.762.555.97 1.054l1.955 4.918"/><g fill-rule="evenodd"><path d="m134.86 140.75h-2.355v-8.728h2.355v8.728"/><path d="m141.23 134.36l2.979 5.5c.208.375.499.637.887.791.388.166.804.221 1.246.152.264-.027.513-.097.721-.208l-1.468-2.604v.028l-1.608-2.91-1.26-2.258c-.222-.318-.471-.554-.762-.706-.193-.098-.401-.153-.609-.181-.083-.014-.18-.014-.277-.014-.056 0-.111.014-.166.014-.208.028-.402.083-.596.181-.291.152-.554.388-.762.706l-1.261 2.258-1.621 2.91v-.028l-1.455 2.604c.208.111.443.181.72.208.429.055.845.014 1.232-.152.389-.153.693-.416.888-.791l2.978-5.5c.014-.028.055-.069.097-.069.056 0 .083.027.097.069"/></g></g><path fill="#293947" d="M1,110l109,109l109-109L110,1L1,110z M218.009,110L110,218.009L1.991,110L110,1.991L218.009,110z"/><g fill="#fff"><path d="m110.5 0h1v1h-1z"/><path d="m108.5 0h1v1h-1z"/><path d="m109.5 1h1v1h-1z"/><path d="m108.5 2h1v1h-1z"/><path d="m110.5 2h1v1h-1z"/><path d="m110.5 217h1v1h-1z"/><path d="m108.5 217h1v1h-1z"/><path d="m109.5 218h1v1h-1z"/><path d="m108.5 219h1v1h-1z"/><path d="m110.5 219h1v1h-1z"/><path d="m2 108.5h1v1h-1z"/><path d="m0 108.5h1v1h-1z"/><path d="m1 109.5h1v1h-1z"/><path d="m0 110.5h1v1h-1z"/><path d="m2 110.5h1v1h-1z"/><path d="m219 108.5h1v1h-1z"/><path d="m217 108.5h1v1h-1z"/><path d="m218 109.5h1v1h-1z"/><path d="m217 110.5h1v1h-1z"/><path d="m219 110.5h1v1h-1z"/></g></svg>