<svg xmlns="http://www.w3.org/2000/svg" viewBox="0 0 220 220" enable-background="new 0 0 220 220"><g fill="#fff"><path d="m45.893 89.3v36.618h36.618v-36.618h-36.618m17.827 32.584h-2.563v-1.222c-.956.886-2.306 1.591-4.156 1.591-4.956 0-7.443-4.061-7.443-7.563s2.461-7.58 7.366-7.58c4.913 0 6.771 4.387 6.771 4.387l-2.22 1.333c0 0-1.54-2.899-4.5-2.899-2.959 0-4.68 2.556-4.68 4.758 0 2.194 1.746 4.732 4.732 4.732 2.073 0 3.252-1.265 3.777-2.04h-3.804v-2.71h6.719v7.213m7.676.378c-1.85 0-3.192-.714-4.146-1.591v1.213h-2.573v-7.211h6.729v2.719h-3.812c.533.766 1.712 2.031 3.786 2.031 2.985 0 4.732-2.539 4.732-4.732 0-2.202-1.721-4.767-4.689-4.767-2.959 0-4.491 2.908-4.491 2.908l-2.228-1.333c0 0 1.857-4.387 6.771-4.387 4.913 0 7.373 4.069 7.373 7.58-.0001 3.5-2.488 7.57-7.452 7.57"/><path fill-rule="evenodd" d="m101.33 122.08l3.39-.002v-8.505h-7.325v2.924l3.791.017c-.737 1.329-1.712 2.575-3.455 2.558-1.919.097-3.806-1.518-3.854-4.19-.08-2.895 1.935-4.43 3.727-4.366 1.102.048 2.432.639 2.831 1.854l3.469-1.646c-1.472-2.447-3.868-3.695-6.173-3.598-4.334-.032-7.757 2.669-7.901 7.597 0 4.717 3.727 7.354 6.941 7.547 2.02.113 3.647-.655 4.56-1.822v1.632zm5.917.015h10.06v-3.181h-6.076v-2.864h5.117v-3.086h-5.102v-2.512h6.06v-3.229h-10.06v14.872m54.4-14.872l.018 9.306c0 3.6 2.19 5.646 6.237 5.566 3.917-.08 5.868-1.808 6.205-5.533v-9.339h-3.935v8.891c.097 1.502-.671 2.448-2.27 2.494-1.488.033-2.479-.751-2.353-2.494v-8.891h-3.902m-36.504 6.986c1.238-.113 1.788-.739 1.819-1.899.031-1.095-.483-1.819-1.819-1.949-.29-.033-.614-.016-.966 0h-.837v3.814l1.238.033c.194.016.386.016.565.0001m0-6.972c1.543.049 2.784.227 3.813.983 1.16.9 1.755 2.14 1.755 3.702 0 2.317-1.208 3.734-3.414 4.249l4.298 5.923h-4.812l-1.642-2.559-1.803-2.833v5.392h-3.896v-14.872h4.604c.371.0001.741.015 1.097.015m14.264.049c1.287.129 2.349.5 3.282 1.143 1.755 1.32 3.075 3.35 3.156 6.246-.081 3.396-1.771 5.537-3.623 6.568-.789.387-1.69.646-2.815.772-.549.063-1.129.08-1.772.08h-4.427v-14.872h5.182c.339.014.677.031 1.017.063m0 11.204c1.4-.339 2.318-1.449 2.253-3.911-.064-2.319-.902-3.396-2.253-3.752-.307-.08-.644-.128-.985-.144h-1.27v7.905h1.223c.354-.0001.708-.033 1.032-.098m13.931-11.253h2.253l5.456 14.857h-4.265l-.805-2.736h-2.639-2.672l-.74 2.736h-4.201l5.15-14.857h2.463zm0 9.05h1.739l-1.739-5.248-.113-.354-1.625 5.603h1.738"/></g><path fill="#293947" d="M1,110l109,109l109-109L110,1L1,110z M218.009,110L110,218.009L1.991,110L110,1.991L218.009,110z"/><g fill="#fff"><path d="m110.5 0h1v1h-1z"/><path d="m108.5 0h1v1h-1z"/><path d="m109.5 1h1v1h-1z"/><path d="m108.5 2h1v1h-1z"/><path d="m110.5 2h1v1h-1z"/><path d="m110.5 217h1v1h-1z"/><path d="m108.5 217h1v1h-1z"/><path d="m109.5 218h1v1h-1z"/><path d="m108.5 219h1v1h-1z"/><path d="m110.5 219h1v1h-1z"/><path d="m2 108.5h1v1h-1z"/><path d="m0 108.5h1v1h-1z"/><path d="m1 109.5h1v1h-1z"/><path d="m0 110.5h1v1h-1z"/><path d="m2 110.5h1v1h-1z"/><path d="m219 108.5h1v1h-1z"/><path d="m217 108.5h1v1h-1z"/><path d="m218 109.5h1v1h-1z"/><path d="m217 110.5h1v1h-1z"/><path d="m219 110.5h1v1h-1z"/></g></svg>