<svg xmlns="http://www.w3.org/2000/svg" viewBox="0 0 220 220" enable-background="new 0 0 220 220"><g fill="#fff"><path d="m62.791 116.9c-1.873 0-1.889-1.236-1.896-1.541-.637.698-1.275 1.183-1.912 1.449-.64.269-1.374.404-2.201.404-1.022 0-1.938-.182-2.747-.541-.81-.361-1.496-.854-2.058-1.476-.561-.626-.991-1.351-1.29-2.185-.302-.832-.45-1.719-.45-2.661 0-.929.148-1.81.45-2.642.299-.833.729-1.562 1.29-2.183.562-.624 1.248-1.12 2.058-1.487.81-.367 1.725-.552 2.747-.552.737 0 1.446.097 2.113.285.67.19 1.267.471 1.79.845.522.373.957.84 1.301 1.403.345.563.562 1.21.65 1.946h-2.334c-.064-.429-.201-.807-.412-1.13-.209-.325-.476-.598-.794-.816-.317-.222-.676-.386-1.071-.495-.396-.11-.811-.166-1.243-.166-.729 0-1.356.141-1.885.423-.531.28-.961.656-1.292 1.127-.334.472-.577 1-.736 1.606-.162.599-.238 1.211-.238 1.834 0 .625.076 1.236.238 1.835.159.6.402 1.136.736 1.606.331.47.761.845 1.292 1.126.528.281 1.156.422 1.885.422.611.012 2.049-.203 2.822-.943 1.116-1.074 1.128-2.102 1.143-2.652h-3.055v-1.743h5.099c0 5.773 0 5.773 0 6.902"/><path d="m63.733 107.42h2.049l-.005 1.867c.063-.258.23-.539.415-.785.185-.244.408-.466.669-.669.262-.2.552-.365.873-.486.318-.122.643-.185.977-.185.254 0 .429.008.524.019.096.014.194.025.298.038v1.871c-1.122 0-1.655.126-1.982.267-.325.142-.608.347-.85.624-.244.275-.436.615-.575 1.017-.141.405-.211.868-.211 1.396 0 0 0 1.555 0 3.137 0 1.584-2.182 1.375-2.182 1.375v-9.486"/><path d="m79.17 116.9c0 0-.113 0-.249 0-1.953 0-1.896-1.32-1.896-1.32s-.537.779-1.233 1.146c-.535.279-1.068.432-1.617.432-1.302 0-2.244-.31-2.822-.926-.582-.619-.872-1.553-.872-2.801 0 0 0-4.794 0-6.02 1.676 0 2.181.313 2.181 1.369v4.96c0 .321.17.908.499 1.249.33.343.797.514 1.397.514.458 0 .842-.067 1.147-.201.307-.135.555-.314.747-.543.19-.226.328-.497.411-.813.082-.319.125-.663.125-1.031v-5.504h2.183v9.486z"/><path d="m80.11 107.42c0 0 .186 0 .382 0 .942 0 1.688.246 1.688 1.044 0 .107 0 .239 0 .239.305-.547.77-.944 1.319-1.18.55-.239 1.142-.361 1.778-.361.779 0 1.458.134 2.04.396.581.263 1.062.624 1.443 1.081.384.459.672.996.862 1.606.191.611.287 1.266.287 1.963 0 .635-.085 1.253-.258 1.853-.174.598-.435 1.129-.784 1.588-.351.459-.795.825-1.33 1.1-.535.276-1.168.414-1.895.414-.32 0-.64-.028-.957-.083-.319-.055-.624-.144-.919-.268-.293-.122-.566-.276-.813-.466-.249-.19-.493-.414-.66-.67 0 0 0 1.746 0 2.407 0 .893-.465 1.799-1.761 1.799-.179 0-.423 0-.423 0v-12.462m7.619 4.753c0-.429-.057-.843-.172-1.248-.113-.404-.287-.762-.519-1.074-.227-.313-.514-.564-.86-.753-.343-.189-.74-.285-1.185-.285-.92 0-1.612.307-2.076.919-.468.612-.698 1.424-.698 2.44 0 .478.061.92.181 1.331.121.41.305.76.546 1.054.244.294.532.526.87.697.338.172.73.257 1.178.257.497 0 .918-.097 1.263-.293.346-.195.629-.45.852-.761.224-.312.382-.666.479-1.064.095-.398.141-.805.141-1.22"/><path d="m95.85 117.16c-.791 0-1.496-.127-2.114-.376s-1.143-.596-1.568-1.037c-.428-.439-.754-.965-.977-1.578-.223-.61-.336-1.285-.336-2.02 0-.721.113-1.387.336-2 .223-.612.549-1.137.977-1.577.426-.441.95-.786 1.568-1.037.618-.25 1.323-.377 2.114-.377.792 0 1.496.127 2.114.377.619.251 1.142.596 1.57 1.037.427.44.754.965.977 1.577.223.613.334 1.279.334 2 0 .733-.111 1.408-.334 2.02-.223.612-.55 1.138-.977 1.578-.429.44-.951.787-1.57 1.037-.618.249-1.322.376-2.114.376m0-1.652c.487 0 .907-.097 1.264-.293.357-.195.652-.453.879-.77.231-.318.398-.676.509-1.075.108-.398.162-.802.162-1.219 0-.404-.054-.809-.162-1.209-.11-.406-.277-.762-.509-1.075-.227-.313-.521-.567-.879-.761-.356-.195-.776-.296-1.264-.296-.483 0-.904.101-1.263.296-.356.194-.65.447-.88.761-.23.313-.398.669-.507 1.075-.11.4-.164.805-.164 1.209 0 .417.054.821.164 1.219.108.398.276.756.507 1.075.229.317.523.575.88.77.358.197.779.293 1.263.293"/><path d="m131.15 112.75c0 .616.091 1.212.272 1.787.182.573.454 1.077.819 1.505.363.431.822.777 1.38 1.032.555.259 1.22.385 1.99.385 1.07 0 1.932-.221 2.583-.661.653-.442 1.14-1.104 1.461-1.986h3.466c-.193.863-.525 1.632-.994 2.31-.47.677-1.038 1.247-1.703 1.708-.661.461-1.405.809-2.229 1.045-.823.236-1.684.355-2.583.355-1.307 0-2.462-.207-3.468-.616-1-.41-1.857-.984-2.55-1.723-.696-.739-1.221-1.62-1.573-2.646-.352-1.024-.529-2.153-.529-3.383 0-1.129.186-2.201.562-3.217.374-1.015.909-1.907 1.604-2.678.694-.77 1.535-1.378 2.52-1.83.982-.451 2.097-.678 3.338-.678 1.306 0 2.478.262 3.516.786 1.038.522 1.898 1.214 2.582 2.077.685.859 1.183 1.851 1.493 2.969.312 1.118.39 2.273.239 3.46h-12.196zm8.539-2.305c-.042-.556-.167-1.089-.37-1.601-.203-.514-.482-.959-.835-1.338-.352-.38-.78-.687-1.283-.924-.502-.234-1.064-.353-1.685-.353-.643 0-1.224.107-1.748.323-.524.217-.976.513-1.348.892-.375.38-.675.826-.9 1.34-.226.512-.349 1.066-.369 1.663h8.538z"/><path d="m167.75 108.25c0-1.049-.193-1.732-.581-2.318-.385-.583-.892-1.061-1.522-1.428-.633-.37-1.344-.637-2.135-.8-.792-.164-1.594-.248-2.407-.248-.92 0-1.817.084-2.695.248-.877.163-1.664.452-2.36.86-.693.412-1.267.956-1.718 1.631-.448.675-.703 1.528-.771 2.553h3.659c.087-.861.46-1.497 1.124-1.908.664-.41 1.508-.615 2.536-.615.362 0 .75.024 1.154.075.406.053.778.154 1.107.309.333.156.61.375.836.662.225.288.336.657.336 1.107 0 .515-.134.897-.401 1.154-.267.257-.631.447-1.091.57-.46.124-.989.21-1.589.262-.598.051-1.23.137-1.894.261-.77.083-1.535.2-2.294.353-.76.154-1.447.406-2.055.753-.609.35-1.101.832-1.476 1.447-.376.617-.562 1.417-.562 2.401 0 .778.155 1.461.465 2.046.31.586.727 1.067 1.251 1.445.523.381 1.13.667 1.813.863.687.195 1.401.292 2.149.292.985 0 2.01-.154 3.066-.461 1.059-.31 1.952-.8 2.68-1.477.15.719.471 1.222.964 1.506.49.288 1.112.433 1.862.433.146 0 .324-.011.533-.03l.016-11.946m-3.66 5.169c0 .759-.125 2.396-1.46 3.36-.393.283-.864.421-1.332.524-.472.104-.912.153-1.316.153-.321 0-.68-.031-1.074-.09-.397-.063-.76-.17-1.093-.325-.331-.154-.615-.364-.85-.631-.235-.267-.354-.593-.354-.984 0-.453.082-.836.24-1.154.162-.318.38-.574.658-.771.278-.193.6-.346.963-.459.364-.114.738-.201 1.124-.262.813-.143 1.627-.251 2.438-.323.813-.071 1.498-.281 2.056-.632v1.594"/><path d="m152.23 103.46h-3.306v-4.337h-3.659v4.337h-2.761v.657c.048 1.548 0 1.442 0 1.96h2.761v9.815c.022.656.091 1.242.209 1.754.117.512.341.938.675 1.276.329.338.791.594 1.38.769.586.175 1.361.262 2.326.262.406 0 .801-.021 1.187-.061.386-.042.72-.095 1.188-.167v-2.664c-.257.062-.514.096-.771.107-.256.001-.513.014-.769.014-.408 0-.728-.044-.966-.137-.233-.092-.411-.23-.527-.416-.118-.185-.194-.411-.226-.675-.031-.268-.047-.585-.047-.956v-8.922c0 0 .567 0 1.154 0 2.243.0001 2.152-1.598 2.152-2.616"/><path d="m123.39 97.83c-1.091.054-2.505.429-3.402 2.636l-5.218 14.564h-.065l-6.321-17.2h-5.649v21.968h3.819v-16.952l6.42 16.952h3.304l6.421-16.952v16.952h3.818v-21.968h-3.127"/><path d="m103.14 122.59v4.157h-.395v-4.157h.395"/><path d="m110.11 122.59v.338h-1.448v3.818h-.396v-3.818h-1.442v-.338h3.286"/><path d="m118.91 125.91c.07.144.166.259.288.344.122.085.268.146.435.183.166.037.345.056.535.056.108 0 .227-.016.354-.046.129-.032.248-.082.358-.149.111-.068.203-.154.277-.262.073-.107.11-.235.11-.387 0-.117-.026-.217-.079-.302-.053-.086-.121-.158-.203-.216-.084-.059-.176-.105-.278-.143-.099-.036-.198-.066-.295-.089l-.927-.227c-.119-.031-.236-.07-.352-.116-.114-.047-.215-.108-.299-.187-.087-.078-.155-.172-.208-.285-.052-.113-.078-.251-.078-.414 0-.101.019-.219.059-.355.038-.135.11-.263.219-.384.106-.121.253-.222.438-.306s.426-.125.715-.125c.206 0 .403.028.589.082.186.055.351.137.489.245.139.109.251.244.334.404.083.162.127.348.127.562h-.397c-.008-.16-.042-.298-.106-.417-.065-.118-.148-.217-.251-.296-.104-.079-.221-.139-.355-.18-.135-.041-.274-.062-.423-.062-.135 0-.265.015-.392.044-.126.029-.237.076-.332.141-.095.063-.171.148-.229.252-.059.104-.087.235-.087.39 0 .097.017.182.049.253.034.072.078.133.137.184.059.05.126.09.202.123.075.03.154.055.24.075l1.013.25c.147.039.286.087.416.143.13.057.244.126.344.21.099.083.177.186.232.306.057.119.084.265.084.436 0 .047-.005.108-.014.187-.011.078-.032.16-.07.248-.037.086-.089.175-.157.264-.068.089-.16.17-.278.242-.119.072-.266.13-.439.176-.175.043-.385.066-.63.066-.243 0-.471-.028-.681-.084-.21-.057-.388-.144-.534-.26-.147-.116-.262-.265-.342-.448-.079-.182-.113-.401-.101-.658h.395c-.004.211.029.39.098.532"/><path d="m128.41 122.59v.338h-2.473v1.501h2.315v.338h-2.315v1.641h2.502v.338h-2.898v-4.157h2.869z"/><path d="m134.15 122.59c.172 0 .333.022.487.065.152.042.287.107.4.195.115.087.207.199.274.337s.103.3.103.486c0 .263-.068.493-.204.687-.137.194-.337.318-.605.373v.011c.136.02.248.055.338.108.089.052.161.12.218.201s.097.176.123.282c.024.107.041.222.049.346.005.071.008.156.012.257.004.101.011.202.023.305.012.103.03.2.056.291.024.091.059.162.102.213h-.437c-.023-.039-.041-.087-.057-.143-.012-.056-.022-.115-.028-.174-.005-.061-.001-.12-.015-.178-.004-.057-.007-.107-.012-.151-.008-.147-.019-.294-.037-.439-.018-.146-.056-.275-.111-.389-.057-.116-.138-.207-.243-.277-.108-.07-.254-.101-.44-.093h-1.501v1.845h-.397v-4.157h1.902zm-.028 1.974c.119 0 .235-.019.343-.056.11-.036.205-.089.285-.159.082-.07.147-.155.196-.253.048-.099.073-.212.073-.341 0-.255-.075-.458-.222-.605-.148-.148-.373-.221-.676-.221h-1.478v1.636h1.479"/><path d="m139.39 122.59l1.35 3.72h.012l1.34-3.72h.419l-1.543 4.157h-.46l-1.537-4.157h.419"/><path d="m146.55 122.59v4.157h-.396v-4.157h.396"/><path d="m153.54 123.42c-.079-.126-.175-.232-.29-.318-.115-.085-.241-.15-.378-.195-.138-.044-.283-.067-.435-.067-.275 0-.513.053-.71.158-.197.104-.358.244-.485.417-.126.172-.22.368-.279.584-.061.218-.091.441-.091.67 0 .224.03.447.091.666.06.219.153.415.279.588.127.172.288.312.485.417.197.104.435.157.71.157.193 0 .369-.035.525-.106.154-.069.288-.164.401-.284.11-.121.203-.261.272-.422.07-.161.114-.334.134-.521h.396c-.026.256-.088.488-.181.693-.093.206-.214.379-.359.524-.148.144-.321.254-.522.332-.199.077-.421.116-.666.116-.325 0-.611-.06-.858-.177-.247-.118-.45-.276-.614-.475-.162-.198-.284-.426-.367-.687-.08-.259-.121-.534-.121-.82 0-.288.041-.562.121-.821.083-.261.205-.49.367-.69.164-.2.367-.359.614-.478.247-.118.533-.178.858-.178.198 0 .392.03.58.087.188.059.358.146.511.26.154.114.282.255.385.422.103.167.167.359.194.577h-.395c-.035-.16-.091-.303-.172-.429"/><path d="m160.89 122.59v.338h-2.473v1.501h2.316v.338h-2.316v1.641h2.503v.338h-2.898v-4.157h2.868z"/><path d="m165.01 125.91c.07.144.167.259.288.344.122.085.268.146.434.183.166.037.346.056.536.056.107 0 .226-.016.354-.046.128-.032.247-.082.358-.149.11-.068.202-.154.275-.262.075-.107.112-.235.112-.387 0-.117-.027-.217-.08-.302-.051-.086-.12-.158-.203-.216-.083-.059-.177-.105-.277-.143-.1-.036-.199-.066-.296-.089l-.925-.227c-.121-.031-.239-.07-.354-.116-.114-.047-.213-.108-.299-.187-.086-.078-.154-.172-.207-.285-.052-.113-.078-.251-.078-.414 0-.101.02-.219.059-.355.038-.135.11-.263.219-.384.105-.121.253-.222.438-.306s.425-.125.715-.125c.207 0 .403.028.59.082.186.055.348.137.488.245.14.109.25.244.334.404.083.162.125.348.125.562h-.396c-.008-.16-.044-.298-.107-.417-.064-.118-.147-.217-.25-.296-.103-.079-.223-.139-.354-.18-.135-.041-.275-.062-.424-.062-.135 0-.267.015-.392.044-.126.029-.237.076-.333.141-.095.063-.17.148-.229.252-.058.104-.087.235-.087.39 0 .097.016.182.05.253.032.072.077.133.137.184.057.05.124.091.201.123.075.031.155.055.24.075l1.013.25c.149.039.287.087.416.143.13.057.245.126.345.21.098.083.177.186.233.306.055.119.082.265.082.436 0 .047-.003.108-.014.187-.001.078-.033.16-.068.248-.039.086-.09.175-.157.264-.069.089-.162.17-.28.242s-.265.13-.439.176c-.175.043-.385.066-.629.066s-.472-.028-.681-.084c-.21-.057-.389-.144-.535-.26-.147-.116-.262-.265-.341-.448-.079-.182-.114-.401-.102-.658h.395c-.003.211.03.39.1.532"/></g><path fill="#293947" d="M1,110l109,109l109-109L110,1L1,110z M218.009,110L110,218.009L1.991,110L110,1.991L218.009,110z"/><g fill="#fff"><path d="m110.5 0h1v1h-1z"/><path d="m108.5 0h1v1h-1z"/><path d="m109.5 1h1v1h-1z"/><path d="m108.5 2h1v1h-1z"/><path d="m110.5 2h1v1h-1z"/><path d="m110.5 217h1v1h-1z"/><path d="m108.5 217h1v1h-1z"/><path d="m109.5 218h1v1h-1z"/><path d="m108.5 219h1v1h-1z"/><path d="m110.5 219h1v1h-1z"/><path d="m2 108.5h1v1h-1z"/><path d="m0 108.5h1v1h-1z"/><path d="m1 109.5h1v1h-1z"/><path d="m0 110.5h1v1h-1z"/><path d="m2 110.5h1v1h-1z"/><path d="m219 108.5h1v1h-1z"/><path d="m217 108.5h1v1h-1z"/><path d="m218 109.5h1v1h-1z"/><path d="m217 110.5h1v1h-1z"/><path d="m219 110.5h1v1h-1z"/></g></svg>