<svg xmlns="http://www.w3.org/2000/svg" viewBox="0 0 220 220" enable-background="new 0 0 220 220"><path fill="#fff" d="m172.51 120.17h-2.622v-18.937h2.622v18.937m-8.296-18.936v18.937h-2.629v-15.422c-.257.582-.634 1.472-1.203 2.669-.563 1.197-1.224 2.548-1.984 4.058-.755 1.515-1.529 3.03-2.315 4.554l-2.151 4.141h-1.061l-1.979-4.101c-.724-1.5-1.436-2.999-2.129-4.492-.7-1.491-1.304-2.841-1.821-4.048-.518-1.205-.876-2.131-1.077-2.781l-.05 15.422h-2.163v-18.937h2.81c1.22 2.515 2.437 5.04 3.648 7.602 1.216 2.552 2.427 5.16 3.63 7.822 1.339-2.662 2.674-5.271 4.02-7.822l3.991-7.602h2.465m-25.803-.0001v1.893h-6.709v6.12h6.576v1.892h-6.576v7.142h7.874v1.892h-10.499v-18.939h9.334m-18.959 18.937h-2.62v-17.05h-6.06v-1.893h14.772v1.893h-6.09v17.05zm-19.792-7.461h5.871c-.468-1.299-.94-2.644-1.406-4.04-.465-1.396-.934-2.937-1.41-4.625-.537 1.688-1.032 3.229-1.533 4.625-.499 1.392-1.01 2.737-1.522 4.04m2.408-11.476h2l7.06 18.938h-3.03l-1.946-5.572h-7.227l-2.026 5.572h-2.545l7.71-18.938zm-25.393 0h2.625v11.476c-.011 1.96.376 3.451 1.155 4.456.773 1.01 2 1.516 3.689 1.52 1.174-.016 2.103-.294 2.807-.83.689-.535 1.186-1.221 1.487-2.055.299-.838.448-1.716.438-2.636v-11.931h2.464v11.987c-.007 1.427-.289 2.684-.853 3.774-.558 1.091-1.377 1.941-2.447 2.56-1.067.617-2.368.929-3.897.943-2.645-.014-4.554-.685-5.733-2.02-1.178-1.327-1.758-3.216-1.735-5.668v-11.581m-7.705 10.281h2.622v7.709c-.923.339-1.947.631-3.062.883-1.111.247-2.273.376-3.484.39-2.246-.023-4.125-.491-5.637-1.396-1.513-.909-2.651-2.106-3.417-3.591-.762-1.485-1.145-3.104-1.147-4.858.004-1.629.415-3.178 1.226-4.655.803-1.472 1.991-2.684 3.562-3.627 1.565-.94 3.49-1.43 5.767-1.46 1.387.021 2.602.205 3.639.565 1.036.36 1.843.785 2.419 1.274l-1.082 1.57c-.573-.406-1.281-.755-2.12-1.051-.84-.294-1.787-.452-2.833-.466-1.642.014-3.04.358-4.181 1.036-1.139.677-2.01 1.595-2.6 2.766-.597 1.169-.897 2.498-.903 3.992.019 1.607.352 3.01 1 4.202.656 1.199 1.535 2.128 2.643 2.792 1.111.663 2.354 1 3.744 1.012.793.005 1.501-.045 2.12-.146.629-.1 1.201-.275 1.723-.531v-6.41m-18.849 8.656h-2.622v-18.938h2.622v18.938"/><path fill="#293947" d="M1,110l109,109l109-109L110,1L1,110z M218.009,110L110,218.009L1.991,110L110,1.991L218.009,110z"/><g fill="#fff"><path d="m110.5 0h1v1h-1z"/><path d="m108.5 0h1v1h-1z"/><path d="m109.5 1h1v1h-1z"/><path d="m108.5 2h1v1h-1z"/><path d="m110.5 2h1v1h-1z"/><path d="m110.5 217h1v1h-1z"/><path d="m108.5 217h1v1h-1z"/><path d="m109.5 218h1v1h-1z"/><path d="m108.5 219h1v1h-1z"/><path d="m110.5 219h1v1h-1z"/><path d="m2 108.5h1v1h-1z"/><path d="m0 108.5h1v1h-1z"/><path d="m1 109.5h1v1h-1z"/><path d="m0 110.5h1v1h-1z"/><path d="m2 110.5h1v1h-1z"/><path d="m219 108.5h1v1h-1z"/><path d="m217 108.5h1v1h-1z"/><path d="m218 109.5h1v1h-1z"/><path d="m217 110.5h1v1h-1z"/><path d="m219 110.5h1v1h-1z"/></g></svg>