<svg xmlns="http://www.w3.org/2000/svg" viewBox="0 0 220 220" enable-background="new 0 0 220 220"><g fill="#fff" fill-rule="evenodd"><path d="m98.27 108.8c0 3.604 0 7.208 0 10.859-1.551 0-3.044 0-4.6 0 0-6.879 0-13.774 0-20.742 1.501 0 2.998-.02 4.494.026.185.006.422.338.526.568 1.712 3.776 3.406 7.561 5.104 11.343.075.167.149.334.291.647.223-.46.395-.792.547-1.131 1.646-3.657 3.285-7.317 4.943-10.968.091-.199.336-.46.515-.465 1.428-.038 2.855-.021 4.332-.021 0 6.925 0 13.803 0 20.736-1.502 0-3.02 0-4.63 0 0-3.621 0-7.261 0-10.902-.056-.014-.111-.028-.166-.042-.087.146-.187.285-.258.438-1.183 2.521-2.372 5.04-3.532 7.568-.214.465-.512.539-.987.625-1.85.338-2.771-.452-3.401-2.163-.744-2.02-1.79-3.919-2.707-5.872-.088-.188-.19-.37-.286-.555-.062.018-.124.035-.185.051"/><path d="m85.14 120.33c-4.264-.007-7.208-2.729-7.731-7.07-.299-2.483.126-4.769 1.657-6.772 1.798-2.354 5.813-3.985 9.471-2.163 3.272 1.629 4.523 4.881 4.401 8.08-.065 1.721-.438 3.367-1.432 4.79-1.535 2.197-3.738 3.119-6.366 3.131m3.237-8.312c.065-.016-.066.015 0 0 .004-1.218-.232-2.07-.638-2.998-.457-1.045-1.36-1.551-2.567-1.552-1.221 0-2.125.47-2.652 1.542-1 2.039-.99 4.125.096 6.106 1.074 1.962 3.836 1.931 5.03.027.603-.962.761-2.02.73-3.125"/><path d="m130.67 111.74c-.077 2.633-.566 4.821-2.335 6.507-2.252 2.145-4.956 2.514-7.827 1.724-2.734-.754-4.354-2.706-5.04-5.399-.59-2.314-.455-4.609.627-6.782 1.384-2.779 4.768-4.684 7.754-4.153 3.509.623 5.75 2.537 6.568 6.095.173.749.197 1.532.255 2.01m-11.203.297c.063 1.042.227 2.083.779 2.995.684 1.172 1.444 1.551 2.697 1.54 1.221-.011 2.138-.537 2.596-1.635.328-.788.543-1.659.617-2.509.116-1.338-.066-2.662-.865-3.811-.961-1.381-3.153-1.597-4.361-.427-1.075 1.041-1.277 2.39-1.463 3.847"/><path d="m66.41 119.69c-1.614 0-3.111 0-4.696 0 0-.284.0001-.542 0-.799-.012-2.911-.021-5.822-.036-8.733-.012-1.932-.782-2.697-2.688-2.681-1.594.012-1.594.012-1.594 1.582 0 3.517 0 7.03 0 10.606-1.576 0-3.135 0-4.721 0 0-1.5-.002-2.997.0001-4.493.005-3.324.021-6.649.011-9.973-.0001-.427.116-.613.537-.769 2.357-.876 4.803-1.241 7.265-.852 3.9.616 5.923 2.627 5.919 6.978-.002 2.766.0001 5.532.002 8.298 0 .261 0 .523 0 .836"/><path d="m150.84 113.14c.301 2.141 1.575 3.32 3.598 3.378.844.024 1.699.038 2.533-.07.797-.103 1.572-.37 2.423-.581 0 1.148.014 2.326-.018 3.502-.003.145-.229.375-.388.411-2.448.548-4.924.873-7.376.133-3.03-.914-4.74-3-5.176-6.148-.354-2.558-.034-4.965 1.504-7.107 2.621-3.649 8.432-4.03 11.396-.739 1.289 1.433 1.721 3.209 1.829 5.079.041.691.006 1.387.006 2.143-3.546-.0001-6.907-.0001-10.331-.0001m5.973-2.873c.009-1.239-.473-2.139-1.476-2.641-1.072-.536-2.203-.496-3.201.23-.792.575-1.185 1.39-1.164 2.411 1.971 0 3.87 0 5.841 0"/><path d="m136.58 119.69c-1.604 0-3.079 0-4.628 0-.013-.221-.035-.427-.034-.633.022-4.655.044-9.309.085-13.964.0001-.185.148-.483.297-.536 2.994-1.063 6.04-1.491 9.139-.501 2.573.822 3.968 2.709 4.081 5.335.146 3.364.049 6.738.054 10.11 0 .042-.034.086-.069.169-1.478 0-2.972 0-4.585 0 0-.244 0-.497 0-.75 0-2.837.006-5.674-.007-8.511-.002-.431-.056-.87-.143-1.292-.197-.961-.88-1.546-1.872-1.607-.529-.032-1.063 0-1.595-.005-.547-.005-.74.229-.736.801.025 3.515.014 7.03.014 10.547-.0001.259-.0001.52-.0001.839"/><path d="m168.36 114.52c1.055-3.52 2.055-6.859 3.052-10.188 1.492 0 2.944 0 4.512 0-.621 2.031-1.2 4.01-1.831 5.973-1.162 3.614-2.466 7.176-4.398 10.463-.548.932-1.22 1.812-1.947 2.614-.962 1.06-2.255 1.586-3.666 1.697-1.082.085-2.176.017-3.317.017 0-1.161 0-2.283 0-3.438.779-.05 1.547-.092 2.313-.15 1.024-.077 1.825-.59 2.484-1.34.498-.565.641-1.098.24-1.882-2.212-4.333-3.908-8.879-5.377-13.513-.042-.135-.053-.279-.087-.469 1.394 0 2.75-.02 4.105.023.185.006.452.294.524.505 1.039 3.045 2.051 6.1 3.074 9.15.041.124.135.232.319.538"/><path d="m73.06 106.05c1.459 0 2.79 0 4.172 0 0 1.154 0 2.278 0 3.459-1.348 0-2.696 0-4.132 0 0 3.409 0 6.764 0 10.164-1.627 0-3.166 0-4.771 0-.011-.197-.032-.406-.033-.613-.002-4.924-.003-9.847 0-14.771.002-3.427 2.755-5.468 5.098-5.408 1.471.038 2.944.007 4.439.007 0 1.165 0 2.293 0 3.499-.944 0-1.859-.001-2.773.002-1.365.019-1.993.652-1.999 1.996-.003.529-.0001 1.057-.0001 1.665"/><path d="m50.739 119.69c-1.57 0-3.091 0-4.659 0 0-6.912 0-13.803 0-20.744 1.537 0 3.074 0 4.659 0 0 6.889 0 13.781 0 20.744"/></g><path fill="#293947" d="M1,110l109,109l109-109L110,1L1,110z M218.009,110L110,218.009L1.991,110L110,1.991L218.009,110z"/><g fill="#fff"><path d="m110.5 0h1v1h-1z"/><path d="m108.5 0h1v1h-1z"/><path d="m109.5 1h1v1h-1z"/><path d="m108.5 2h1v1h-1z"/><path d="m110.5 2h1v1h-1z"/><path d="m110.5 217h1v1h-1z"/><path d="m108.5 217h1v1h-1z"/><path d="m109.5 218h1v1h-1z"/><path d="m108.5 219h1v1h-1z"/><path d="m110.5 219h1v1h-1z"/><path d="m2 108.5h1v1h-1z"/><path d="m0 108.5h1v1h-1z"/><path d="m1 109.5h1v1h-1z"/><path d="m0 110.5h1v1h-1z"/><path d="m2 110.5h1v1h-1z"/><path d="m219 108.5h1v1h-1z"/><path d="m217 108.5h1v1h-1z"/><path d="m218 109.5h1v1h-1z"/><path d="m217 110.5h1v1h-1z"/><path d="m219 110.5h1v1h-1z"/></g></svg>