<svg xmlns="http://www.w3.org/2000/svg" viewBox="0 0 220 220" enable-background="new 0 0 220 220"><path fill-rule="evenodd" fill="#fff" d="m76.81 100.84c-5.981 7.02-11.717 15.736-11.775 22.247-.022 2.45.759 4.589 2.636 6.21 2.701 2.331 5.674 3.154 8.635 3.159 4.326.005 8.622-1.74 11.985-3.085 5.665-2.266 68.28-29.457 68.28-29.457.604-.303.49-.68-.265-.491-.305.076-68.17 18.467-68.17 18.467-1.31.367-2.648.558-3.95.565-5.216.031-9.856-2.864-9.819-8.964.016-2.387.746-5.265 2.439-8.651"/><path fill="#293947" d="M1,110l109,109l109-109L110,1L1,110z M218.009,110L110,218.009L1.991,110L110,1.991L218.009,110z"/><g fill="#fff"><path d="m110.5 0h1v1h-1z"/><path d="m108.5 0h1v1h-1z"/><path d="m109.5 1h1v1h-1z"/><path d="m108.5 2h1v1h-1z"/><path d="m110.5 2h1v1h-1z"/><path d="m110.5 217h1v1h-1z"/><path d="m108.5 217h1v1h-1z"/><path d="m109.5 218h1v1h-1z"/><path d="m108.5 219h1v1h-1z"/><path d="m110.5 219h1v1h-1z"/><path d="m2 108.5h1v1h-1z"/><path d="m0 108.5h1v1h-1z"/><path d="m1 109.5h1v1h-1z"/><path d="m0 110.5h1v1h-1z"/><path d="m2 110.5h1v1h-1z"/><path d="m219 108.5h1v1h-1z"/><path d="m217 108.5h1v1h-1z"/><path d="m218 109.5h1v1h-1z"/><path d="m217 110.5h1v1h-1z"/><path d="m219 110.5h1v1h-1z"/></g></svg>