<svg xmlns="http://www.w3.org/2000/svg" viewBox="0 0 220 220" enable-background="new 0 0 220 220"><g fill="#fff" fill-rule="evenodd"><path d="m171.31 128.17c-.545.001-1.091.026-1.636.026-28.24.0001-56.47.0001-84.71.0001-.537 0-1.074 0-1.684 0 0-11.752 0-23.399 0-35.25.51 0 1.035 0 1.56 0 28.656.0001 57.31.002 85.968.0001.166 0 .333-.018.5-.027 0 11.747 0 23.496 0 35.24m-84.52-3.605c26.986 0 53.881 0 80.77 0 0-9.38 0-18.666 0-27.959-26.977 0-53.845 0-80.77 0 0 9.338 0 18.594 0 27.959"/><path d="m44.688 102.99c0 0 5.611 2.141 8.547 3.262 1.67-2.218 3.376-4.484 5.141-6.826 1.746 2.33 3.424 4.57 5.141 6.862 2.817-1.119 5.604-2.225 8.599-3.415-.368 2.063-3.449 18.473-3.449 18.473l-20.601.021-3.378-18.377m6.158 15.13c.545 0 .998 0 1.451 0 3.438 0 6.876.012 10.313-.007 1.075-.006 3.318-.017 3.318-.017s.325-2.083.536-3.059c.009-.041.028-.08.036-.121.392-2.16.782-4.32 1.207-6.667-1.581.635-2.954 1.138-4.281 1.739-.788.357-1.252.243-1.756-.494-1.022-1.495-2.155-2.914-3.305-4.446-1.173 1.554-2.302 2.907-3.261 4.372-.573.877-1.101.893-1.949.505-1.276-.584-2.604-1.058-4.115-1.66.615 3.357 1.192 6.511 1.806 9.855"/><path d="m98.55 117.85c-4.21-.015-7.41-3.108-7.449-7.2-.039-4.115 3.332-7.391 7.598-7.383 4.219.008 7.424 3.202 7.404 7.378-.02 4.136-3.253 7.22-7.553 7.205m-4.115-7.246c.018 2.51 1.797 4.375 4.188 4.387 2.377.013 4.212-1.883 4.221-4.359.009-2.546-1.811-4.421-4.28-4.41-2.426.001-4.147 1.837-4.129 4.382"/><path d="m111.81 114.85c2.687 0 5.063 0 7.54 0 0 .93 0 1.778 0 2.701-3.844 0-7.677 0-11.552 0-.278-1.344-.08-2.409.892-3.467 2.261-2.46 4.382-5.05 6.721-7.774-2.587 0-4.947 0-7.396 0 0-.943 0-1.76 0-2.685 3.734 0 7.483 0 11.323 0 .242 1.248.191 2.372-.825 3.476-2.238 2.434-4.336 4.994-6.703 7.749"/></g><path fill="#293947" d="M1,110l109,109l109-109L110,1L1,110z M218.009,110L110,218.009L1.991,110L110,1.991L218.009,110z"/><g fill="#fff"><path d="m110.5 0h1v1h-1z"/><path d="m108.5 0h1v1h-1z"/><path d="m109.5 1h1v1h-1z"/><path d="m108.5 2h1v1h-1z"/><path d="m110.5 2h1v1h-1z"/><path d="m110.5 217h1v1h-1z"/><path d="m108.5 217h1v1h-1z"/><path d="m109.5 218h1v1h-1z"/><path d="m108.5 219h1v1h-1z"/><path d="m110.5 219h1v1h-1z"/><path d="m2 108.5h1v1h-1z"/><path d="m0 108.5h1v1h-1z"/><path d="m1 109.5h1v1h-1z"/><path d="m0 110.5h1v1h-1z"/><path d="m2 110.5h1v1h-1z"/><path d="m219 108.5h1v1h-1z"/><path d="m217 108.5h1v1h-1z"/><path d="m218 109.5h1v1h-1z"/><path d="m217 110.5h1v1h-1z"/><path d="m219 110.5h1v1h-1z"/></g></svg>