<svg xmlns="http://www.w3.org/2000/svg" viewBox="0 0 220 220" enable-background="new 0 0 220 220"><path fill="#fff" d="m88.58 111.26c0-1.3-.247-2.661-.795-3.541-2.591-4.16-8.638-3.03-10.923.941-1.188 2.063-1.811 6.091-.891 8.343.778 1.903 2.653 3.471 5.14 3.471 3.772 0 6.298-2.125 7.242-5.969l-4.465-.17c-.086 2.146-1.212 2.471-1.958 2.314-.89-.188-1.332-1.494-1.135-3.827.082-.985.374-2.205.78-2.846.909-1.438 2.611-.791 2.365 1.529l4.64-.245m37.996-4.768c-1.098-1.395-4.32-2.434-6.726.533-2.399 2.889-2.668 7.853-1.725 10.765.427 1.319 1.288 2.219 2.141 2.526 2.225.901 4.487-.502 5.313-1.96l-.231 1.868h4.662l2.102-19.866h-4.856l-.68 6.134m-.408 3.645l-.535 4.679c-.21 2.062-2.179 2.388-2.723 1.015-.555-1.593-.199-4.846.66-6.333 1.124-1.953 2.751-.701 2.598.639m-11.645-4.608c-2.466-.932-5.447-.496-7.361.401-1.905.893-2.696 2.337-3.153 3.948l4.551.258c.677-2.319 4.134-1.303 3.242.426-.471.913-5.235.544-7.06 2.189-1.014.871-1.601 2.117-1.779 3.648-.106 2.722 1.811 4.074 3.897 4.074 2.225 0 3.719-.662 4.465-2.242-.055.711-.125 1.887-.125 1.992h4.833c-.221-.222-.178-.75-.031-2.809l.766-7.154c.178-1.297.125-2.293-.355-3.131-.411-.765-1.01-1.268-1.885-1.6m-5.156 11.581c-.425-.025-.912-.195-1.105-.558-.52-.97.212-2.819 3.313-3.208-.008 2.583-1.145 3.83-2.208 3.766m-42.06-15.12c-1.251-1.215-2.654-1.707-5.128-1.707h-7.421l-1.547 14.588-.588 5.354h5.268l.872-7.24h3.523c1.74 0 4.266-1.102 5.445-3.434.905-1.579 1.583-5.612-.424-7.561m-6.02 6.92h-2.104l.463-4.02h1.927c2.648 0 1.997 4.02-.286 4.02m102.01-3.663l-2.733 7.327-1.21-7.327h-5.317l3.127 14.06c.296 1.356-.841 2.116-1.956 2.116-.725 0-1.589-.004-2.179-.004l-.418 4.086c.811 0 1.695-.002 2.24-.002 4.715 0 5.466-2.548 6.612-5.446l5.915-14.804h-4.081zm-24.08 14.979h4.677l2.158-19.866h-4.734l-2.101 19.866m9.06-19.866l-2.158 19.866h4.732l2.106-19.866h-4.68m-45.76 10.902c0-1.3-.248-2.661-.796-3.541-2.591-4.16-8.638-3.03-10.923.941-1.187 2.063-1.811 6.091-.891 8.343.777 1.903 2.653 3.471 5.141 3.471 3.772 0 6.298-2.125 7.242-5.969l-4.465-.17c-.086 2.146-1.212 2.471-1.958 2.314-.889-.188-1.332-1.494-1.136-3.827.083-.985.374-2.205.78-2.846.91-1.438 2.611-.791 2.366 1.529l4.64-.245m29.611 8.964h4.838l1.728-14.817h-4.965l-1.601 14.817m1.656-15.937h4.964l.45-3.929h-4.964l-.45 3.929m-65.27 15.937h4.838l1.728-14.817h-4.964l-1.602 14.817m2.105-19.866l-.45 3.929h4.964l.449-3.929h-4.963"/><path fill="#293947" d="M1,110l109,109l109-109L110,1L1,110z M218.009,110L110,218.009L1.991,110L110,1.991L218.009,110z"/><g fill="#fff"><path d="m110.5 0h1v1h-1z"/><path d="m108.5 0h1v1h-1z"/><path d="m109.5 1h1v1h-1z"/><path d="m108.5 2h1v1h-1z"/><path d="m110.5 2h1v1h-1z"/><path d="m110.5 217h1v1h-1z"/><path d="m108.5 217h1v1h-1z"/><path d="m109.5 218h1v1h-1z"/><path d="m108.5 219h1v1h-1z"/><path d="m110.5 219h1v1h-1z"/><path d="m2 108.5h1v1h-1z"/><path d="m0 108.5h1v1h-1z"/><path d="m1 109.5h1v1h-1z"/><path d="m0 110.5h1v1h-1z"/><path d="m2 110.5h1v1h-1z"/><path d="m219 108.5h1v1h-1z"/><path d="m217 108.5h1v1h-1z"/><path d="m218 109.5h1v1h-1z"/><path d="m217 110.5h1v1h-1z"/><path d="m219 110.5h1v1h-1z"/></g></svg>