<svg xmlns="http://www.w3.org/2000/svg" viewBox="0 0 220 220" enable-background="new 0 0 220 220"><g fill="#fff"><g fill-rule="evenodd"><path d="m101.16 78.973c.386 1.08 1.388 1.851 2.776 1.851 1.466 0 2.391-.694 3.085-1.851.925 1.311 1.774 1.851 3.01 1.851 1.389 0 2.314-.694 3.085-1.851.694 1.157 1.928 1.851 3.239 1.851 1.697 0 2.623-1.08 2.854-1.851v3.01h-18.05v-3.01h.002m6.171-5.399v3.394c0 1.388 1.465 2.777 2.853 2.777 1.466 0 2.7-1.389 2.7-2.777v-3.394h-.386v3.239c0 1.08-.926 2.391-2.314 2.391-1.157 0-2.391-1.08-2.391-2.391v-3.239h-.462m-6.171 0v3.394c0 1.388 1.311 2.777 2.854 2.777 1.389 0 2.623-1.389 2.623-2.777v-3.394h-.463v3.239c0 1.08-.848 2.391-2.16 2.391-1.311 0-2.391-1.08-2.391-2.391v-3.239h-.463m12.418 0v3.394c0 1.388 1.388 2.777 2.854 2.777 1.388 0 2.777-1.389 2.777-2.777v-3.394h-.463v3.239c0 1.08-.926 2.391-2.314 2.391-1.234 0-2.391-1.08-2.391-2.391v-3.239h-.463m-12.418 9.333h18.05v1.851h-18.05v-1.851"/><path d="m88.74 92.08l-5.244 13.03c-2.391.925-4.474 1.388-5.63 1.697.463 1 2.468.926 4.936.154l-8.562 20.901c-.154.926.309 1.08.771 0l9.333-21.518c2.468-.848 5.476-2.236 7.79-3.547 5.399-3.01 11.03-9.333 6.556-13.188-1.234-1-3.779-1-6.941-.154l1.157-3.085c.463-.617-1.774-.694-1.928 0l-1.388 3.625c-6.401 2.082-14.11 6.401-16.968 9.794-.848 1.234-.925 2.16 0 2.546 0-.54-.309-.54 0-1.312 0 0 .617-.771 1.157-1.234 2.623-2 8.253-5.01 12.648-6.864.616-.386 1.619-.54 2.313-.849m-3.548 12.341l5.707-13.03c3.471-1.157 6.479-1.312 7.404-.386 1.774 1.928-1.312 6.864-5.399 9.332-2.159 1.62-5.089 3.085-7.712 4.088m7.25 4.01l4.087-2.623c.463-2.237 2.468-6.941 4.705-10.258 2.931-4.55 6.556-8.407 8.792-6.941 1.542 1.465.54 6.788-3.47 11.11-2.16 2.237-6.247 5.63-8.638 6.864-.926 2.391-.849 4.859.077 5.245 2.391.694 4.782-3.162 7.173-6.247 3.393-4.319 5.784-9.255 10.412-9.718.463 0 .463 1.542 0 1.62-2.545.309-5.399 3.239-7.02 6.093-2.391 4.242-2.391 6.401-1.311 6.556 1.773.231 3.933-2.16 6.324-5.399 1.542-1.928 2.699-3.934 3.471-5.553.771-1.697 1.465-2.854 1.465-3.162.463-1 2.159-.54 1.773 0-.616 1.851-2 4.01-3.01 6.325-1.388 2.776-2.16 5.398-1 5.938 1.08.617 2.545-2.16 3.703-3.625.153-.231.231-.231.308 0 0 .385-.076 1.388-.539 1.928-.926 2.16-2.01 3.316-3.163 3.163-1.697 0-2.699-1-2.01-3.703-2.236 3.085-5.553 6.093-7.943 5.553-.925-.231-1.542-1.697-1.774-3.393-2.854 3.393-4.473 5.167-7.173 4.859-1.62-.309-2.083-2.7-1.62-5.322-1.31.694-2.853 1.619-3.624.694m6.247-3.857c1.234-.694 5.245-4.01 8.099-7.558 1.388-1.542 2.236-3.471 2.699-4.936.154-1.08.077-1.928-.231-2.082-1.08-.849-3.933 2.082-6.324 5.784-2.469 3.547-3.934 7.481-4.243 8.792m23.37-7.635c1-1.851 3.856-3.857 5.861-2.623 1.62.694 1.157 3.625-.231 5.476 1.157-.154 2.468 0 3.393.926 2.159-1.774 4.396-4.859 6.093-6.401 1.619-1.697 3.394-4.087 5.785-3.856 1 .077.617 1.542.154 1.465-2.083.154-3.317 2-4.936 3.934-2.854 3.01-5.399 7.712-3.394 8.87 2 1.311 5.399-3.548 8.33-7.944 1.388-2.314 1.928-4.165 3.316-6.17.231-.617 2-.541 1.542.077-.462 1.311-1.542 3.162-2.313 4.628-1.62 3.01-3.162 6.633-1.928 7.635 1.233.694 2.93-1.774 3.702-3.085.077-.463.386-.231.386.154 0 .309-.231 1-.386 1.466-1 1.773-1.928 3.162-3.78 2.931-1.542-.231-1.928-1.157-1.928-3.085-2.083 3.239-5.708 6.093-8.176 4.396-.925-.617-1.079-2.545-.462-5.399l-1.466 1.389c.309 2.545-1.157 6.479-4.242 10.334-1.389 1.543-8.715 9.101-10.952 5.708-1.312-1.851 2.237-5.862 6.556-10.258 2.314-2.16 5.09-4.242 7.02-5.784-.463-.694-1.697-.694-2.392-.463-2.083.694-2.7 1.851-4.087 3.162-.771.694-2.391 0-1.234-.617 2.237-2.622 6.093-6.555 5.09-8.33-1.466-1.08-3.702.463-4.628 1.542-.539.539-.77.076-.692-.078m8.02 6.02c.23.771-.54 2.854-3.085 6.787-.849 1.157-2.236 2.545-3.316 3.625-2.314 2.313-4.859 4.01-5.862 3.316-.925-.694 3.085-5.554 6.633-8.947 1.927-2.158 3.856-3.469 5.63-4.781"/><path d="m80.46 128.62v-7.106c.052.007.125.015.215.02.092.007.163.014.211.021.056-.006.137-.014.243-.021.105-.005.187-.013.244-.02v2.979c.975.031 1.678.052 2.111.064.623-.025 1.382-.045 2.275-.064v-2.979c.052.007.125.015.215.02.092.007.163.014.211.021.055-.006.137-.014.243-.021.105-.005.187-.013.244-.02v7.106c-.179 0-.328-.007-.447-.021-.111.014-.267.021-.466.021v-3.576c-1.44-.026-2.178-.041-2.215-.041-.046 0-.771.014-2.171.041v3.576c-.222 0-.384-.007-.487-.021-.099.014-.241.021-.426.021m9.455-3.532c0-.647.151-1.259.453-1.834.299-.574.736-1.036 1.306-1.38.571-.344 1.234-.518 1.993-.518h.083c.675.016 1.262.123 1.763.322.5.199.912.466 1.233.796.32.331.557.707.711 1.125.154.418.23.859.23 1.32 0 .597-.101 1.134-.3 1.611-.199.478-.481.883-.843 1.218-.364.336-.783.589-1.257.761-.477.171-.982.256-1.517.256h-.043c-.654-.009-1.266-.135-1.835-.381-.57-.244-1.038-.641-1.401-1.189-.366-.546-.556-1.249-.576-2.107m1.017.042c0 .693.12 1.284.359 1.774.237.49.571.862 1 1.115.43.253.928.384 1.497.395.499 0 .964-.135 1.397-.403.435-.269.785-.651 1.049-1.146.265-.494.409-1.059.435-1.694 0-.031.002-.077.005-.133.003-.057.005-.102.005-.135 0-.663-.117-1.231-.353-1.706-.235-.474-.567-.837-.994-1.088-.43-.252-.921-.387-1.481-.408-.649 0-1.195.159-1.633.479-.44.32-.764.741-.973 1.264-.209.521-.315 1.083-.315 1.686m12.981 3.533v-6.638h-.262c-.596 0-1.262.041-2 .125.007-.098.011-.198.011-.301 0-.126-.003-.237-.011-.335h5.373c-.011.063-.018.125-.024.186-.005.061-.013.111-.02.149.007.035.014.076.02.125.005.047.014.108.024.177-.666-.083-1.398-.125-2.195-.125v6.638c-.055-.009-.133-.016-.234-.022-.098-.007-.176-.013-.231-.021-.043.008-.113.014-.213.021-.101.007-.179.014-.235.021m9.444-.064v-7.085h3.688c-.005.042-.011.099-.02.174-.006.074-.015.135-.022.182.007.026.016.069.022.134.009.063.014.112.02.146-.452-.096-1.072-.144-1.858-.144h-.916v2.615h1.621c.047 0 .128-.003.245-.001.116-.007.22-.014.309-.021.09-.009.211-.018.363-.029-.001.049-.019.102-.024.155-.006.054-.012.098-.02.133.008.026.013.061.018.108.005.046.014.105.025.174-.464-.031-.768-.051-.916-.063h-1.621v3.042c.076 0 .156.007.239.023.178-.008.388-.015.625-.023.238-.009.487-.019.748-.033.262-.014.496-.029.703-.047.208-.019.381-.04.521-.066-.005.033-.012.08-.019.14-.007.061-.014.111-.022.153.006.032.013.088.022.175.008.087.016.142.019.167h-3.75m11.492-7.085c.042.007.111.015.206.02.095.007.168.014.218.021.053-.006.134-.014.243-.021.111-.005.193-.013.247-.02v7.125c-.044-.006-.121-.014-.228-.021-.109-.005-.189-.012-.241-.02-.05.008-.126.014-.228.02-.103.007-.175.014-.217.021v-7.125m9.08 1.785c.017-.458.14-.834.371-1.125.23-.291.515-.5.854-.626.341-.126.694-.191 1.061-.191.305 0 .596.049.87.147.273.098.487.22.638.363-.038.08-.136.364-.293.853h-.09c-.088-.232-.237-.443-.449-.632-.209-.188-.494-.284-.853-.284-.247 0-.469.054-.668.159-.198.108-.354.251-.464.436-.112.181-.168.382-.168.601 0 .599.322 1.039.965 1.32l1.083.448c.4.16.703.373.909.641.206.269.308.631.308 1.084 0 .376-.104.738-.31 1.09-.208.35-.51.633-.907.855-.397.22-.864.331-1.403.331-.318-.014-.63-.078-.934-.191-.303-.114-.539-.254-.707-.421.098-.273.164-.585.198-.937h.104c.262.439.518.725.771.858.252.132.531.213.838.244.28 0 .538-.069.772-.21.233-.138.416-.324.549-.556.132-.231.197-.471.197-.718 0-.623-.339-1.076-1.017-1.363l-1.031-.426c-.339-.135-.599-.303-.776-.507-.178-.203-.292-.405-.342-.608-.05-.203-.076-.414-.076-.635"/><path d="m114.96 121.16l1.85-.93.39.55-2.24.38"/><path d="m120.51 118.69l.617-.309c0 .694 0 9.794 0 10.489h-.617v-10.18"/><path d="m78.33 122.09l.613-1.39v8.17h-.613v-6.78"/><path d="m88.58 98.49l.617-1.311v4.705l-.617.308v-3.702m53.14 6.093c.231.231.386.309.617.463v23.832h-.617v-24.295m0-11.646c.154-.155.386-.155.617-.231v3.162c-.154.386-.309.617-.617.926v-3.857m0-19.359h.617c0 .694 0 15.502 0 16.197-.154 0-.386 0-.617.077v-16.274m-10.567 0h.617c0 .694 0 24.912 0 25.606l-.617.54v-26.15m0 33.859l.617-1.465c0 .694 0 22.21 0 22.906h-.617v-21.441m-10.643 5.63l.617-.694c0 .694 0 1.62 0 2.313l-.617.463v-2.082m0-6.248c.309-.694.54-1.388.617-2.622 0 .694 0 3.548 0 4.242l-.617.617c0-.462 0-1.697 0-2.237m0-8.946l.54-1.311c.077-.231.077-.231.077-.463 0 .694 0 7.404 0 8.098 0-.694-.386-.771-.617-.849v-5.475m0-24.295h.617c0 .694 0 21.827 0 22.521-.077-.694-.386-1-.617-1.08v-21.441m-10.49 12.495h.54c0 .694 0 1.388 0 2.082-.154-.154-.386-.231-.54-.308v-1.774m0 10.03l.54-1.311v2.776l-.54.617v-2.082m0 6.633l.54-.848v5.476l-.54.617v-5.245m0 8.869l.54-.385v17.662h-.54v-17.277m-10.874 2.16c.154 0 .463-.077.617-.154v15.271h-.617v-15.12m0-40.18h.617v16.197l-.617-.617v-15.58m-10.566 0h.617v15.348l-.231.54-.386.077v-15.965m0 31.853l.617-.309v23.755h-.617v-23.446m-10.258 2.7c.231.077.385.077.617.154v6.169l-.617 1.466v-7.789m0-10.489l.617-.077v8.252l-.617.154v-8.329m0-24.06h.617v20.516l-.617.386v-20.902"/><path d="m94.22 153.17v-7.117h2.119c.374 0 .724.029 1.045.091.323.061.606.196.842.41.236.213.355.53.355.948 0 .324-.075.611-.223.865-.147.252-.348.46-.596.623-.251.161-.522.278-.818.349.533.047.982.204 1.35.468.367.265.55.658.55 1.181 0 .429-.108.809-.325 1.143-.218.334-.517.589-.898.77-.38.179-.807.27-1.282.27h-2.119v-.0001m.917-3.979h.625c.586 0 1.049-.125 1.394-.377.343-.252.52-.612.531-1.08 0-.487-.153-.821-.461-1-.306-.183-.73-.279-1.273-.291h-.814v2.75h-.002m0 3.591h1.034c.297 0 .578-.066.842-.198.265-.13.477-.318.635-.562.159-.243.237-.526.237-.846 0-.626-.204-1.048-.612-1.268-.407-.219-.912-.329-1.51-.329h-.625v3.203h-.0001m5.402.428v-7.157h2.286c.788 0 1.36.132 1.717.397.356.264.535.662.535 1.198 0 .428-.118.781-.356 1.063-.239.28-.52.489-.844.63-.326.141-.646.233-.959.279.27.337.517.646.74.929.222.283.504.638.844 1.067.341.428.56.703.654.823.096.12.303.376.623.771-.089-.007-.209-.014-.362-.021-.153-.005-.273-.012-.36-.019-.05.007-.13.013-.237.019-.107.007-.188.014-.243.021-1.147-1.592-2.052-2.761-2.714-3.504h-.407v3.504c-.054-.007-.132-.014-.235-.021-.101-.005-.179-.012-.233-.019-.05.007-.123.013-.223.019-.098.007-.174.014-.226.021m.916-3.89c.125.012.296.019.512.019.565 0 1.01-.083 1.335-.252.326-.167.548-.368.667-.601.12-.233.179-.466.179-.703 0-.483-.179-.831-.538-1.04-.358-.21-.798-.314-1.32-.314-.101 0-.248.0001-.438.005-.189.003-.323.004-.397.004v2.882m4.69 3.89l3.255-7.315h.252l3.131 7.315c-.085 0-.287-.014-.606-.04-.054.007-.134.013-.242.019-.106.007-.189.014-.247.021-.316-.934-.685-1.881-1.108-2.837h-2.641c-.157.395-.298.755-.425 1.077-.129.324-.245.631-.352.927-.106.294-.194.572-.268.833-.042-.007-.104-.014-.19-.021-.085-.005-.15-.012-.196-.019-.041.005-.103.001-.188.019-.085.007-.142.014-.175.021m1.994-3.266h2.286l-1.171-2.661-1.115 2.661m5.468-2.097c.018-.461.141-.839.373-1.131.231-.292.516-.503.857-.63.343-.127.698-.192 1.066-.192.307 0 .599.049.874.148.275.099.489.221.641.365-.039.08-.136.366-.294.855h-.091c-.088-.233-.238-.445-.45-.634-.21-.19-.496-.286-.856-.286-.249 0-.471.054-.672.161-.198.107-.354.252-.466.437-.113.182-.168.383-.168.603 0 .602.323 1.044.969 1.326l1.086.45c.402.161.707.374.914.644.207.27.309.633.309 1.089 0 .377-.104.741-.312 1.095-.208.351-.513.636-.912.859-.398.221-.868.332-1.409.332-.321-.014-.633-.078-.938-.192-.304-.114-.541-.255-.71-.422.098-.275.164-.588.199-.941h.104c.262.441.52.727.774.862.254.132.534.213.842.244.282 0 .542-.069.776-.21.235-.139.418-.326.552-.559.132-.231.198-.474.198-.722 0-.624-.341-1.08-1.021-1.369l-1.035-.428c-.341-.136-.602-.305-.78-.509-.179-.204-.293-.408-.344-.611-.05-.201-.076-.413-.076-.634m5.564-1.794c.042.007.111.014.207.019.095.008.169.015.219.022.053-.007.134-.014.244-.022.111-.005.193-.012.247-.019v7.157c-.043-.007-.12-.014-.228-.021-.109-.005-.189-.012-.242-.019-.05.007-.127.013-.23.019-.102.007-.175.014-.217.021v-7.157m2.832 7.117v-7.117c.048.007.115.014.198.019.084.008.146.015.187.022.059-.007.146-.014.261-.022s.205-.013.271-.019v6.625c.118 0 .227.007.324.023.391-.014.838-.037 1.345-.07.506-.031.906-.065 1.2-.1-.005.041-.001.1-.019.176-.007.079-.014.139-.021.179.026.153.04.247.04.284h-3.786"/></g><path d="m75.69 142.19h68.62v.56h-68.62v-.56"/><path fill-rule="evenodd" d="m76.3 139.15v-6.934h2.215c.763 0 1.318.128 1.664.384.345.256.519.642.519 1.161 0 .415-.115.757-.346 1.03-.23.271-.504.474-.817.611-.315.136-.625.225-.929.27.261.327.5.627.716.9.216.274.489.618.818 1.034.33.415.542.681.633.798.093.116.293.363.604.746-.086-.007-.202-.014-.351-.021-.148-.004-.265-.011-.349-.018-.049.007-.126.014-.229.018-.105.007-.182.014-.236.021-1.111-1.542-1.987-2.675-2.629-3.396h-.395v3.396c-.052-.007-.128-.014-.228-.021-.098-.004-.174-.011-.226-.018-.049.007-.12.014-.216.018-.093.007-.167.014-.218.021m.888-3.769c.121.012.287.019.496.019.548 0 .978-.081 1.294-.245.315-.162.531-.356.646-.581.116-.227.174-.452.174-.681 0-.469-.174-.806-.521-1.01-.347-.204-.774-.305-1.279-.305-.098 0-.239.0001-.425.004-.184.004-.312.005-.384.005v2.792h-.0001m5.293 3.73v-6.895h3.588c-.005.04-.001.096-.019.168-.007.072-.015.131-.022.177.007.025.015.067.022.129.008.062.013.11.019.142-.44-.093-1.043-.139-1.809-.139h-.892v2.545h1.578c.045 0 .125-.003.238-.001s.214-.014.3-.021c.088-.008.206-.017.354-.028-.001.049-.019.099-.023.151-.007.052-.012.094-.019.13.007.024.012.058.017.104.005.045.013.103.025.17-.451-.03-.748-.05-.892-.062h-1.578v2.961c.074 0 .152.007.233.022.173-.007.377-.014.608-.022.23-.009.474-.019.728-.032.254-.013.482-.028.684-.045.202-.019.371-.038.507-.064-.005.032-.012.077-.019.137-.007.059-.013.107-.021.148.006.03.013.086.021.17.008.085.016.139.019.164h-3.647m4.781-5.157c.017-.447.136-.813.36-1.096.225-.283.501-.487.831-.609.332-.124.676-.186 1.034-.186.296 0 .579.047.846.143.266.096.474.214.62.354-.037.077-.131.354-.285.829h-.087c-.086-.226-.231-.432-.437-.616-.204-.184-.48-.276-.83-.276-.241 0-.457.052-.65.155-.192.105-.344.245-.452.423-.109.178-.163.373-.163.585 0 .583.313 1.01.938 1.285l1.054.437c.389.155.685.362.885.623.201.262.3.614.3 1.056 0 .365-.101.717-.301 1.061-.202.34-.498.616-.883.832-.386.214-.841.322-1.365.322-.31-.014-.613-.076-.909-.186-.294-.111-.524-.247-.688-.41.094-.266.159-.569.192-.912h.101c.254.426.503.705.75.834.246.128.517.208.815.238.273 0 .524-.067.752-.204.227-.135.404-.315.534-.541.128-.225.192-.458.192-.7 0-.605-.331-1.046-.989-1.327l-1-.415c-.331-.131-.583-.295-.755-.494-.173-.197-.285-.395-.333-.592-.048-.194-.074-.399-.074-.613m4.855 1.74c0-.63.146-1.225.439-1.785.292-.56.716-1.01 1.271-1.343.557-.336 1.202-.504 1.94-.504h.081c.657.015 1.229.12 1.715.313.487.194.889.454 1.201.776.312.321.543.688.692 1.095.15.407.224.836.224 1.285 0 .581-.098 1.104-.292 1.568-.194.465-.469.859-.821 1.186-.354.327-.762.573-1.224.74-.464.167-.956.25-1.477.25h-.042c-.637-.008-1.232-.132-1.787-.371-.555-.238-1.01-.624-1.364-1.158-.353-.533-.538-1.217-.556-2.052m.989.041c0 .674.117 1.25.349 1.727.231.477.556.839.976 1.085.418.246.904.374 1.457.384.486 0 .939-.132 1.36-.394.423-.26.764-.633 1.022-1.115.258-.481.397-1.03.423-1.648 0-.031.002-.074.005-.129.003-.056.005-.1.005-.132 0-.646-.114-1.199-.344-1.66-.229-.46-.551-.814-.967-1.058-.418-.247-.896-.378-1.441-.398-.632 0-1.163.155-1.589.467-.428.312-.744.721-.948 1.23-.205.507-.308 1.055-.308 1.641m7.901 3.415v-6.934h2.215c.764 0 1.318.128 1.664.384.345.256.519.642.519 1.161 0 .415-.115.757-.345 1.03-.231.271-.504.474-.818.611-.315.136-.625.225-.928.27.261.327.501.627.716.9.216.274.489.618.817 1.034.33.415.543.681.634.798.093.116.293.363.604.746-.086-.007-.202-.014-.351-.021-.148-.004-.265-.011-.349-.018-.048.007-.126.014-.229.018-.105.007-.182.014-.236.021-1.111-1.542-1.987-2.675-2.629-3.396h-.395v3.396c-.052-.007-.128-.014-.228-.021-.098-.004-.173-.011-.226-.018-.048.007-.119.014-.216.018-.094.007-.168.014-.219.021m.889-3.769c.122.012.287.019.496.019.548 0 .978-.081 1.294-.245.315-.162.531-.356.646-.581.116-.227.173-.452.173-.681 0-.469-.173-.806-.521-1.01-.347-.204-.774-.305-1.279-.305-.098 0-.239.0001-.425.004-.184.004-.312.005-.384.005v2.792m6.787 3.793v-6.461h-.255c-.58 0-1.229.04-1.95.121.007-.094.001-.192.001-.293 0-.123-.003-.23-.001-.325h5.229c-.001.061-.018.121-.024.18-.005.059-.011.108-.018.145.007.034.013.074.018.122.005.045.015.104.024.171-.647-.081-1.36-.121-2.136-.121v6.461c-.054-.009-.13-.015-.228-.022-.096-.007-.172-.013-.226-.02-.042.007-.109.013-.208.02-.095.008-.171.015-.226.022m3.862-5.22c.017-.447.137-.813.361-1.096s.5-.487.831-.609c.332-.124.676-.186 1.034-.186.296 0 .58.047.846.143.267.096.474.214.62.354-.037.077-.131.354-.285.829h-.087c-.086-.226-.231-.432-.437-.616-.204-.184-.48-.276-.829-.276-.241 0-.457.052-.65.155-.193.105-.345.245-.453.423-.109.178-.163.373-.163.585 0 .583.313 1.01.939 1.285l1.053.437c.39.155.685.362.885.623.201.262.3.614.3 1.056 0 .365-.101.717-.302 1.061-.202.34-.498.616-.883.832-.386.214-.841.322-1.365.322-.31-.014-.614-.076-.909-.186-.295-.111-.524-.247-.688-.41.094-.266.159-.569.192-.912h.101c.255.426.504.705.75.834.246.128.518.208.815.238.273 0 .524-.067.752-.204.228-.135.405-.315.534-.541.128-.225.192-.458.192-.7 0-.605-.331-1.046-.989-1.327l-1-.415c-.331-.131-.583-.295-.755-.494-.174-.197-.286-.395-.334-.592-.048-.194-.073-.399-.073-.613m10.662 0c.017-.447.137-.813.361-1.096.225-.283.501-.487.832-.609.332-.124.675-.186 1.033-.186.297 0 .58.047.846.143.267.096.474.214.621.354-.038.077-.132.354-.286.829h-.087c-.087-.226-.231-.432-.437-.616-.205-.184-.481-.276-.83-.276-.24 0-.456.052-.65.155-.192.105-.344.245-.452.423-.11.178-.164.373-.164.585 0 .583.313 1.01.938 1.285l1.053.437c.39.155.685.362.885.623.2.262.3.614.3 1.056 0 .365-.101.717-.302 1.061-.202.34-.497.616-.883.832-.386.214-.841.322-1.365.322-.311-.014-.614-.076-.908-.186-.295-.111-.524-.247-.688-.41.095-.266.158-.569.192-.912h.101c.255.426.504.705.75.834.246.128.517.208.816.238.272 0 .524-.067.751-.204.228-.135.405-.315.535-.541.128-.225.191-.458.191-.7 0-.605-.33-1.046-.989-1.327l-1-.415c-.331-.131-.584-.295-.755-.494-.174-.197-.285-.395-.333-.592-.049-.194-.074-.399-.074-.613m6.118 2.01v3.184c-.053-.007-.128-.014-.224-.021-.098-.004-.174-.011-.229-.018-.054.007-.132.014-.229.018-.1.007-.175.014-.228.021v-5.176-1.758h2.257c.539.008.968.07 1.283.19.316.118.543.297.682.536.14.24.209.55.209.931 0 .403-.08.739-.238 1.01-.16.271-.394.49-.707.657-.314.166-.717.302-1.21.405-.086.001-.195.021-.333.034-.135.011-.23.021-.285.028-.394-.028-.643-.042-.748-.042m0-3.354v2.958c.182 0 .333.008.455.023.115-.015.293-.023.537-.023.501-.043.892-.213 1.175-.509.281-.297.423-.67.423-1.125 0-.367-.095-.669-.283-.907-.189-.238-.476-.371-.86-.398-.162-.014-.472-.02-.932-.02h-.515v.0001m4.095 6.538l3.154-7.087h.245l3.034 7.087c-.083 0-.278-.014-.588-.039-.053.007-.13.014-.235.018-.103.007-.183.014-.239.021-.307-.905-.665-1.822-1.074-2.749h-2.559c-.151.383-.288.732-.411 1.043-.124.313-.237.612-.341.898-.103.285-.188.555-.259.808-.04-.007-.101-.014-.183-.021-.083-.004-.146-.011-.19-.018-.039.005-.1.001-.183.018-.083.007-.138.014-.171.021m1.933-3.164h2.215l-1.135-2.578-1.08 2.578m5.297-2.032c.017-.447.137-.813.36-1.096.225-.283.501-.487.832-.609.332-.124.676-.186 1.033-.186.297 0 .58.047.847.143.266.096.473.214.62.354-.038.077-.132.354-.285.829h-.088c-.086-.226-.231-.432-.437-.616-.205-.184-.48-.276-.83-.276-.24 0-.456.052-.65.155-.192.105-.344.245-.452.423-.109.178-.163.373-.163.585 0 .583.313 1.01.938 1.285l1.054.437c.389.155.684.362.885.623.201.262.3.614.3 1.056 0 .365-.102.717-.302 1.061-.203.34-.497.616-.883.832-.387.214-.842.322-1.365.322-.311-.014-.614-.076-.909-.186-.295-.111-.524-.247-.688-.41.094-.266.158-.569.191-.912h.101c.255.426.504.705.75.834.246.128.518.208.816.238.272 0 .524-.067.751-.204.228-.135.405-.315.534-.541.129-.225.192-.458.192-.7 0-.605-.33-1.046-.989-1.327l-1-.415c-.33-.131-.583-.295-.755-.494-.173-.197-.285-.395-.333-.592-.047-.194-.072-.399-.072-.613"/></g><path fill="#293947" d="M1,110l109,109l109-109L110,1L1,110z M218.009,110L110,218.009L1.991,110L110,1.991L218.009,110z"/><g fill="#fff"><path d="m110.5 0h1v1h-1z"/><path d="m108.5 0h1v1h-1z"/><path d="m109.5 1h1v1h-1z"/><path d="m108.5 2h1v1h-1z"/><path d="m110.5 2h1v1h-1z"/><path d="m110.5 217h1v1h-1z"/><path d="m108.5 217h1v1h-1z"/><path d="m109.5 218h1v1h-1z"/><path d="m108.5 219h1v1h-1z"/><path d="m110.5 219h1v1h-1z"/><path d="m2 108.5h1v1h-1z"/><path d="m0 108.5h1v1h-1z"/><path d="m1 109.5h1v1h-1z"/><path d="m0 110.5h1v1h-1z"/><path d="m2 110.5h1v1h-1z"/><path d="m219 108.5h1v1h-1z"/><path d="m217 108.5h1v1h-1z"/><path d="m218 109.5h1v1h-1z"/><path d="m217 110.5h1v1h-1z"/><path d="m219 110.5h1v1h-1z"/></g></svg>