<svg xmlns="http://www.w3.org/2000/svg" viewBox="0 0 220 220" enable-background="new 0 0 220 220"><g fill="#fff" fill-rule="evenodd"><path d="m112.52 101.36h19.801c.004.095.007.187.007.289l1.243-10.08h17.518l-.885 6.904h-7.818l-.492 3.539h7.953l-.629 5.991h-8.08l-.5 3.555h8.09l-.631 6.618h-17.799l.773-6.273c-2.74 7.685-9.76 12.507-19.03 12.507-6.405 0-11.805-2.242-15.418-6.01.352.283.721.55 1.097.803 8.827 5.956 20.808 3.626 26.763-5.196 1.866-2.772 2.913-5.856 3.211-8.969-.543 1.658-1.316 3.265-2.34 4.776-5.956 8.819-17.932 11.149-26.754 5.201-.309-.204-5.164-3.234-6.26-9.681-1.127 1.188-2.73 1.974-4.713 2.257l5.783 10.418h-10.456c0 0-3.08-10.08-3.285-11.07l-1.32 11.07h-9.432l3.271-26.618h10.609c4.268 0 6.38.564 8.337 2.154 1.142.977 2.029 2.248 2.558 3.65 3.242-6.92 10.393-11.353 19.445-11.353 8.09 0 13.371 2.758 17.987 9.307-.112-.128-.174-.195-.174-.195-.944-1.088-1.98-2.221-3.196-3.113-8.611-6.252-20.656-4.346-26.92 4.266-1.965 2.703-3.126 5.756-3.523 8.849.604-1.634 1.431-3.213 2.508-4.688 6.254-8.608 18.303-10.524 26.916-4.264.258.179.504.372.748.564l-8.9 3.471c-1.927-2.364-3.185-3.079-5.497-3.079-4.511 0-8.04 4.294-8.04 9.786 0 4.405 2.872 7.488 6.94 7.488 2.748 0 5-1.213 6.348-4.696l-7.105-.003 1.299-8.178m-31.856-2.806l-.593 4.776h1.122c2.231 0 3.589-1.047 3.589-2.716 0-1.397-.993-2.073-3.069-2.073l-1.049.013"/><path d="m70.819 132.98c-1.307 0-1.908-.646-1.908-1.927v-2.739h.804v2.718c0 .775.237 1.355 1.125 1.355.878 0 1.114-.6 1.114-1.375v-2.698h.791v2.761c0 1.259-.66 1.905-1.926 1.905"/><path d="m77.919 132.89v-1.839c0-.482-.105-.879-.67-.879-.6 0-.738.439-.738.957v1.761h-.741v-1.817c0-.479-.092-.9-.655-.9-.551 0-.756.456-.756.949v1.769h-.727v-1.959c0-.413-.008-.816-.027-1.231h.727l.02.5c.233-.371.59-.545 1.031-.545.48 0 .83.174 1.014.619.239-.428.635-.619 1.127-.619.854 0 1.135.545 1.135 1.311v1.925h-.74z"/><path d="m81.07 131.31c-.447 0-1.159.072-1.159.646 0 .343.299.538.63.538.699 0 .789-.61.789-1.179-.09-.005-.178-.005-.26-.005m.344 1.579c-.021-.151-.037-.299-.051-.438-.266.378-.6.514-1.049.514-.609 0-1.127-.314-1.127-.976 0-1.087 1.365-1.073 2.135-1.073v-.163c0-.442-.143-.701-.613-.701-.369 0-.557.166-.583.542h-.707c.001-.748.64-.977 1.273-.977.847 0 1.347.268 1.347 1.217v.941c0 .369.021.733.064 1.114h-.689"/><path d="m85.959 130.09c-.525 0-.798.416-.839.899h1.59c0-.475-.228-.899-.751-.899m-.856 1.349v.048c0 .534.271 1.01.856 1.01.413 0 .685-.24.746-.652h.706c-.119.787-.742 1.122-1.48 1.122-1.02 0-1.551-.647-1.551-1.619 0-1 .525-1.721 1.59-1.721 1.135 0 1.457.817 1.457 1.814h-2.324"/><path d="m92.31 132.89v-1.839c0-.482-.104-.879-.665-.879-.607 0-.747.439-.747.957l.008 1.761h-.736v-1.817c0-.479-.096-.9-.662-.9-.549 0-.756.456-.756.949v1.769h-.728v-1.959c0-.413-.001-.816-.022-1.231h.723l.02.5c.237-.371.59-.545 1.036-.545.478 0 .827.174 1.01.619.242-.428.633-.619 1.125-.619.859 0 1.136.545 1.136 1.311v1.925h-.741z"/><path d="m95.46 130.11c-.65 0-.862.639-.862 1.196 0 .524.177 1.161.804 1.161.671 0 .865-.624.865-1.187 0-.528-.176-1.17-.807-1.17m.143 2.845c-.445 0-.729-.154-.99-.5v1.637h-.734v-3.549c0-.281-.001-.554-.025-.848h.722l.021.502c.244-.382.594-.569 1.066-.569.949 0 1.363.761 1.363 1.611-.002.87-.453 1.716-1.423 1.716"/><path d="m99.21 130.31c-.629 0-.851.364-.851.947v1.627h-.735c0 0 .014-1.506 0-2.249 0 0-.015-.62-.022-.941h.722l.018.521c.211-.369.534-.544.973-.544.052 0 .107.005.171.007v.658c-.102-.008-.193-.026-.276-.026"/><path d="m101.18 130.09c-.528 0-.796.416-.838.899h1.59c0-.475-.232-.899-.752-.899m-.862 1.349v.048c0 .534.272 1.01.861 1.01.408 0 .689-.24.748-.652h.707c-.119.787-.748 1.122-1.486 1.122-1.018 0-1.549-.647-1.549-1.619 0-1 .524-1.721 1.588-1.721 1.144 0 1.457.817 1.457 1.814h-2.326"/><path d="m104.37 132.97c-.706 0-1.315-.27-1.336-1.086h.729c.019.415.232.624.636.624.301 0 .625-.16.625-.487 0-.187-.107-.301-.293-.38-.082-.041-.187-.075-.299-.108-.117-.031-.229-.057-.352-.089-.471-.12-.969-.298-.969-.893.004-.701.742-.935 1.325-.935.666 0 1.208.26 1.241 1.01h-.723c-.018-.383-.195-.555-.564-.555-.262 0-.581.122-.581.413 0 .174.122.278.308.361.085.038.186.069.299.101.115.026.238.055.361.089.492.128.98.31.98.907.002.775-.735 1.028-1.387 1.028"/><path d="m107.97 131.31c-.445 0-1.159.072-1.159.646 0 .343.292.538.623.538.7 0 .794-.61.794-1.179-.094-.005-.174-.005-.258-.005m.336 1.579c-.018-.151-.035-.299-.041-.438-.262.378-.606.514-1.057.514-.602 0-1.125-.314-1.125-.976 0-1.087 1.365-1.073 2.139-1.073v-.163c0-.442-.143-.701-.614-.701-.373 0-.557.166-.582.542h-.709c.007-.748.638-.977 1.282-.977.843 0 1.342.268 1.342 1.217v.941c0 .369.021.733.059 1.114h-.694"/><path d="m113.41 132.97c-1.443 0-2.076-1-2.076-2.336 0-1.302.663-2.404 2.076-2.404.83 0 1.678.395 1.703 1.349h-.814c-.043-.494-.434-.735-.896-.735-.966 0-1.252.984-1.252 1.791 0 .819.312 1.732 1.273 1.732.457 0 .918-.254.943-.801h.822c-.091 1.012-.919 1.404-1.779 1.404"/><path d="m117.4 128.89h-.705v1.543h.574c.582 0 1.135-.104 1.135-.802 0-.63-.469-.741-1-.741m.993 1.994c-.288.114-.669.127-1.031.127h-.666v1.875h-.789v-4.578h1.555c.408 0 .83.018 1.184.249.389.251.572.672.572 1.12-.0001.551-.308 1.01-.825 1.207"/><path d="m120.63 128.89v1.38h2v.58h-2v2.04h-.77v-4.58h2.88v.58z"/><path d="m123.39 132.89v-4.58h.78v3.99h2.2v.59z"/><path d="m128.72 132.89v-4.58h2.96v.58h-2.19v1.36h2.09v.58h-2.09v1.47h2.27v.59z"/><path d="m134.58 132.89v-1.733c0-.51-.041-.984-.663-.984-.675 0-.784.684-.784 1.174v1.544h-.737v-2.489c0-.238-.015-.472-.018-.703h.724l.016.482c.267-.354.583-.527 1.045-.527.82 0 1.155.441 1.155 1.217v2.02h-.738"/><path d="m137.49 130.09c-.53 0-.788.416-.841.899h1.589c0-.475-.221-.899-.748-.899m-.857 1.349v.048c0 .534.278 1.01.857 1.01.411 0 .69-.24.748-.652h.708c-.116.787-.752 1.122-1.484 1.122-1.018 0-1.553-.647-1.553-1.619 0-1 .525-1.721 1.59-1.721 1.143 0 1.464.817 1.464 1.814h-2.33"/><path d="m141.14 130.31c-.633 0-.853.364-.853.947v1.627h-.732c0 0 .011-1.506 0-2.249 0 0-.009-.62-.024-.941h.717l.016.521c.226-.369.537-.544.981-.544.049 0 .112.005.171.007v.658c-.102-.008-.194-.026-.276-.026"/><path d="m143.15 130.1c-.636 0-.855.605-.855 1.155 0 .536.225 1.107.848 1.107.646 0 .847-.607.847-1.153-.0001-.514-.248-1.109-.84-1.109m1.573.729v1.282c0 1.293-.202 2.039-1.6 2.039-.654 0-1.41-.191-1.41-1.01h.704c0 .415.343.55.7.55.82 0 .872-.632.872-1.286v-.094c-.247.357-.603.529-1.042.529-.963 0-1.418-.719-1.418-1.602 0-.86.47-1.608 1.418-1.608.455 0 .817.178 1.06.564l.008-.5h.725c-.011.492-.017.767-.017 1.136"/><path d="m145.53 129.69h.737v3.203h-.737v-3.203m-.018-1.375h.784v.649h-.784v-.649"/><path d="m148.69 131.31c-.451 0-1.158.072-1.158.646 0 .343.295.538.614.538.708 0 .802-.61.802-1.179-.094-.005-.173-.005-.258-.005m.345 1.579c-.025-.151-.041-.299-.059-.438-.257.378-.592.514-1.047.514-.609 0-1.125-.314-1.125-.976 0-1.087 1.368-1.073 2.139-1.073v-.163c0-.442-.146-.701-.619-.701-.369 0-.557.166-.577.542h-.707c0-.748.633-.977 1.269-.977.848 0 1.352.268 1.352 1.217v.941c0 .369.021.733.059 1.114h-.685"/></g><path fill="#293947" d="M1,110l109,109l109-109L110,1L1,110z M218.009,110L110,218.009L1.991,110L110,1.991L218.009,110z"/><g fill="#fff"><path d="m110.5 0h1v1h-1z"/><path d="m108.5 0h1v1h-1z"/><path d="m109.5 1h1v1h-1z"/><path d="m108.5 2h1v1h-1z"/><path d="m110.5 2h1v1h-1z"/><path d="m110.5 217h1v1h-1z"/><path d="m108.5 217h1v1h-1z"/><path d="m109.5 218h1v1h-1z"/><path d="m108.5 219h1v1h-1z"/><path d="m110.5 219h1v1h-1z"/><path d="m2 108.5h1v1h-1z"/><path d="m0 108.5h1v1h-1z"/><path d="m1 109.5h1v1h-1z"/><path d="m0 110.5h1v1h-1z"/><path d="m2 110.5h1v1h-1z"/><path d="m219 108.5h1v1h-1z"/><path d="m217 108.5h1v1h-1z"/><path d="m218 109.5h1v1h-1z"/><path d="m217 110.5h1v1h-1z"/><path d="m219 110.5h1v1h-1z"/></g></svg>