<svg xmlns="http://www.w3.org/2000/svg" viewBox="0 0 220 220" enable-background="new 0 0 220 220"><path fill-rule="evenodd" fill="#fff" d="m52.34 95.41h115.32v4.086h-6.111v.628h6.111v3.456h-6.111v.628h6.111v3.456h-6.111v.628h6.111v3.456h-6.111v.628h6.111v3.518h-6.111v.628h6.111v3.456h-6.111v.628h6.111v3.976h-115.32v-3.976h6.122v-.628h-6.122v-3.455h6.122v-.629h-6.122v-3.518h6.122v-.628h-6.122v-3.456h6.122v-.628h-6.122v-3.456h6.122v-.628h-6.122v-3.456h6.122v-.628h-6.122v-4.086m28.17 10.292l-5.907.03c.862-2.954-4.279-3.585-5.263-.62-.614 1.852 2.113 2.09 2.829 2.369 2.175.85 5.225.934 6.553 2.941 1.255 1.896.648 4.912-.702 6.813-.734 1.033-1.971 1.893-3.273 2.563-1.306.671-3.376 1.175-5.708 1.175-4.181 0-8.73-.566-8.353-6.565l.031-.481 6.03.0001c-.396 1.91.985 3.02 3.03 2.906 1.154-.064 3.327-.797 3.422-2.296.091-1.442-1.98-2.112-3.061-2.423-2.995-.864-7.399-1.362-7.156-5.282.316-5.115 4.708-7.635 9.629-7.639 5.811-.003 8.988 1.351 7.9 6.508m21-6.07l-.758 4.103h-10.299l-.681 4.124h9.445l-.91 4.184h-9.431l-.859 4.375h10.275l-.996 4.04h-16.12l4.417-20.821h15.919m23.903-.084l-4.571 20.905h-7.999l-3.589-15.866h-.059l-3.479 15.866h-5.173l4.403-20.905h8.166l3.728 15.14h.06l3.173-15.14h5.34m21.414 20.905h-6.592l-.62-3.969h-8.328l-2.193 3.969h-6.04l12.673-20.821h7.141l3.955 20.821m-7.621-8.097l-.965-8.701h-.058l-4.558 8.701h5.581m20.12-12.724l-4.425 20.821h-5.959l4.424-20.821h5.96"/><path fill="#293947" d="M1,110l109,109l109-109L110,1L1,110z M218.009,110L110,218.009L1.991,110L110,1.991L218.009,110z"/><g fill="#fff"><path d="m110.5 0h1v1h-1z"/><path d="m108.5 0h1v1h-1z"/><path d="m109.5 1h1v1h-1z"/><path d="m108.5 2h1v1h-1z"/><path d="m110.5 2h1v1h-1z"/><path d="m110.5 217h1v1h-1z"/><path d="m108.5 217h1v1h-1z"/><path d="m109.5 218h1v1h-1z"/><path d="m108.5 219h1v1h-1z"/><path d="m110.5 219h1v1h-1z"/><path d="m2 108.5h1v1h-1z"/><path d="m0 108.5h1v1h-1z"/><path d="m1 109.5h1v1h-1z"/><path d="m0 110.5h1v1h-1z"/><path d="m2 110.5h1v1h-1z"/><path d="m219 108.5h1v1h-1z"/><path d="m217 108.5h1v1h-1z"/><path d="m218 109.5h1v1h-1z"/><path d="m217 110.5h1v1h-1z"/><path d="m219 110.5h1v1h-1z"/></g></svg>