<svg xmlns="http://www.w3.org/2000/svg" viewBox="0 0 220 220" enable-background="new 0 0 220 220"><g fill="#fff"><path d="m150.07 119.2c-1.883.357-5.389.519-5.389.519l4.513-21.291c0 0 .438-1.298-1.445-1.364-1.882-.065-7.189 0-7.189 0s.634 1.64.13 4.203c-.503 2.564-3.813 19.07-3.813 19.07s-.73 3.262-1.965 4.967l16.555-.163c.162 0 3.927-7.92 3.927-7.92s-3.442 1.623-5.324 1.98"/><path d="m124.65 124.94c1.273-.43 11.471-4.236 12.193-16.07.614-10.03-8.59-14.238-15.536-12.08-6.322 1.963-11.165 6.93-12.377 13.1-1.212 6.166 1.861 9.954 1.861 9.954s-1.307-5.05 1.969-11.05c5.277-9.683 17.649-7.547 15.752 1.166-1.03 4.732-5.279 6.9-5.279 6.9l-.107-.084 1.082-4.869-11.901 9.998c6.253 7.465 16.304 7.287 16.304 7.287-1.804-1.265-3.581-3.535-3.998-4.082l.037-.165"/><path d="m107.66 120.12l-5.127-9.695c0 0 8.287-9.239 9.976-11.01 1.687-1.775 2.726-2.109 2.726-2.109h-8.829c-.086.51-.52.962-.52.962l-9.217 10.56c0 0 1.505-7.399 1.904-9.585.338-1.863-.79-1.937-1.321-1.937-.529 0-7.03 0-7.03 0 .345 1.429.108 3.774.108 3.774s-3.354 16.792-4.046 19.994c-.693 3.204-1.818 4.394-1.818 4.394s6.384 0 7.748 0c1.361 0 1.535-1.364 1.535-1.364l1.902-10.451 4.111 8.157c0 0 1.987 4.065 6.644 4.76 4.864.728 6.428-.518 6.428-.518-1.969-.864-5.173-5.928-5.173-5.928"/><path d="m78.88 107.92c-3.049-2.185-4.081-3.486-3.52-5.268.467-1.482 2.193-2.763 5.03-2.262 2.746.485 5.172 3.874 5.172 3.874l1.507-6.525c-4.637-1.568-7.858-1.287-9.189-1.222s-8.814 1.317-10.118 7.691c-1.081 5.291 2.46 7.662 5.187 9.597.985.699 4.824 2.705 3.715 6.208-.335 1.058-1.403 1.821-3.131 1.848-4.479.067-6.72-4.702-6.72-4.702l-2.207 7.433c10.09 4.057 18.923 1.157 20.258-6.18.994-5.471-2.699-8.133-5.987-10.492"/></g><path fill="#293947" d="M1,110l109,109l109-109L110,1L1,110z M218.009,110L110,218.009L1.991,110L110,1.991L218.009,110z"/><g fill="#fff"><path d="m110.5 0h1v1h-1z"/><path d="m108.5 0h1v1h-1z"/><path d="m109.5 1h1v1h-1z"/><path d="m108.5 2h1v1h-1z"/><path d="m110.5 2h1v1h-1z"/><path d="m110.5 217h1v1h-1z"/><path d="m108.5 217h1v1h-1z"/><path d="m109.5 218h1v1h-1z"/><path d="m108.5 219h1v1h-1z"/><path d="m110.5 219h1v1h-1z"/><path d="m2 108.5h1v1h-1z"/><path d="m0 108.5h1v1h-1z"/><path d="m1 109.5h1v1h-1z"/><path d="m0 110.5h1v1h-1z"/><path d="m2 110.5h1v1h-1z"/><path d="m219 108.5h1v1h-1z"/><path d="m217 108.5h1v1h-1z"/><path d="m218 109.5h1v1h-1z"/><path d="m217 110.5h1v1h-1z"/><path d="m219 110.5h1v1h-1z"/></g></svg>