<svg xmlns="http://www.w3.org/2000/svg" viewBox="0 0 220 220" enable-background="new 0 0 220 220"><g fill="#fff" fill-rule="evenodd"><circle cx="163.93" cy="122.62" r="2.723"/><circle cx="157.3" cy="122.62" r="2.723"/><circle cx="150.75" cy="122.62" r="2.723"/><circle cx="144.04" cy="122.62" r="2.723"/><circle cx="137.49" cy="122.62" r="2.723"/><circle cx="130.94" cy="122.62" r="2.723"/><path d="m51.55 120.57h1.236c.312 0 .548.036.707.106.16.069.306.188.439.353.134.165.239.38.316.644.076.265.114.592.114.985 0 .354-.039.661-.12.923-.08.261-.182.468-.305.621-.123.152-.271.267-.445.344-.174.077-.397.117-.671.117h-1.271v-4.093m.674.693v2.71h.509c.217 0 .375-.02.473-.061.098-.041.178-.103.239-.186.063-.083.115-.214.156-.393.041-.178.061-.413.061-.706 0-.303-.021-.542-.063-.717-.042-.174-.107-.313-.195-.413-.089-.101-.196-.167-.322-.198-.095-.025-.278-.037-.55-.037h-.308v.0001m3.109.033v-.727h.644v.727h-.644m0 3.367v-2.964h.644v2.964h-.644m1.478-.847l.645-.12c.056.31.229.467.52.467.154 0 .269-.03.346-.09.076-.06.114-.137.114-.231 0-.065-.016-.116-.05-.153-.036-.038-.105-.07-.209-.098-.528-.14-.864-.273-1.01-.399-.178-.158-.268-.375-.268-.651s.087-.495.262-.661c.175-.166.43-.249.762-.249.318 0 .56.062.727.186.165.124.281.324.348.6l-.606.136c-.053-.238-.206-.358-.457-.358-.158 0-.271.023-.338.069-.067.046-.101.105-.101.177 0 .065.031.119.093.162.061.045.251.111.571.201.359.1.603.222.731.366.127.143.19.333.19.572 0 .287-.099.523-.294.708-.196.187-.468.279-.813.279-.314 0-.571-.077-.771-.232-.2-.155-.33-.382-.394-.681m4.346-2.118v.625h-.438v1.194c0 .258.006.409.019.449.026.075.079.112.159.112.06 0 .145-.025.257-.075l.055.608c-.148.078-.317.117-.505.117-.164 0-.295-.039-.393-.117-.099-.079-.165-.19-.198-.337-.026-.108-.039-.328-.039-.659v-1.292h-.296v-.625h.296v-.589l.645-.458v1.047h.438m1.467 2.965h-.645v-2.964h.597v.422c.103-.198.195-.328.276-.393.081-.064.174-.097.28-.097.146 0 .288.05.422.149l-.201.683c-.107-.085-.207-.128-.302-.128-.089 0-.168.032-.235.1-.069.065-.117.184-.146.357-.03.173-.045.492-.045.955v.916m1.605-3.367v-.727h.645v.727h-.645m0 3.367v-2.964h.645v2.964h-.645m1.674 0v-4.093h.645v1.475c.1-.138.207-.241.326-.31.118-.07.245-.104.38-.104.288 0 .529.13.727.389.198.258.298.639.298 1.144 0 .502-.102.889-.304 1.16-.203.271-.442.406-.715.406-.139 0-.277-.043-.412-.127-.137-.086-.251-.211-.347-.375v.436h-.598v-.0001m.638-1.547c0 .255.025.449.073.583.049.134.117.236.207.305.089.07.184.105.282.105.141 0 .262-.075.363-.222.101-.147.151-.382.151-.702 0-.336-.05-.58-.152-.73-.101-.149-.229-.225-.386-.225-.149 0-.275.073-.38.218-.104.146-.158.368-.158.668m4.253 1.547v-.444c-.088.16-.207.285-.351.375-.145.091-.296.135-.455.135-.16 0-.304-.042-.431-.125-.126-.083-.221-.203-.283-.357-.062-.154-.093-.378-.093-.673v-1.875h.645v1.362c0 .389.001.636.028.74.021.106.063.187.13.245.067.058.148.086.244.086.108 0 .207-.037.298-.113.092-.075.152-.172.181-.29.028-.118.042-.378.042-.781v-1.25h.642v2.964h-.597v.0001m1.67-3.367v-.727h.643v.727h-.643m0 3.367v-2.964h.643v2.964h-.643m3.933 0h-.6v-.436c-.098.167-.214.293-.349.376-.133.083-.271.125-.412.125-.273 0-.509-.135-.711-.406s-.303-.658-.303-1.16c0-.507.099-.888.296-1.146.198-.257.44-.387.728-.387.136 0 .263.035.381.104.118.068.227.171.326.31v-1.475h.644v4.095m-1.715-1.547c0 .268.022.468.068.598.045.131.111.23.195.296.085.066.18.1.287.1.141 0 .264-.076.368-.229.104-.152.156-.383.156-.689 0-.34-.05-.586-.151-.736-.102-.149-.23-.225-.387-.225-.148 0-.275.074-.379.221-.106.147-.157.368-.157.664m2.6.022c0-.289.058-.554.173-.792.115-.238.266-.416.453-.535.186-.12.395-.18.627-.18.391 0 .698.154.921.459.223.307.334.664.334 1.074 0 .305-.058.581-.174.826-.117.246-.269.431-.457.553-.189.125-.397.186-.622.186-.361 0-.661-.137-.899-.413-.237-.275-.356-.668-.356-1.178m.659.042c0 .3.058.526.175.68.117.153.259.229.424.229.163 0 .301-.078.416-.231.115-.154.173-.382.173-.684 0-.293-.059-.518-.176-.673-.117-.154-.257-.231-.421-.231-.162 0-.301.077-.417.231-.117.156-.174.382-.174.679m3.373 1.483h-.645v-2.964h.597v.422c.103-.198.194-.328.275-.393.081-.064.175-.097.28-.097.147 0 .288.05.422.149l-.201.683c-.106-.085-.207-.128-.302-.128-.09 0-.167.032-.235.1-.069.065-.117.184-.147.357-.029.173-.044.492-.044.955v.916m2.087-2.061l-.583-.128c.071-.299.188-.514.35-.646.163-.131.396-.197.702-.197.272 0 .479.039.623.115.143.076.245.18.307.311.062.131.093.37.093.716l-.006.916c0 .256.011.448.03.574.021.125.059.259.115.4h-.637l-.084-.324c-.11.13-.227.227-.352.293-.126.065-.259.097-.401.097-.236 0-.43-.079-.581-.238-.15-.16-.226-.371-.226-.636 0-.167.031-.313.092-.438.062-.125.148-.224.259-.298.112-.074.292-.141.536-.198.299-.068.506-.133.624-.192 0-.165-.012-.271-.036-.323-.023-.05-.066-.092-.128-.125-.062-.033-.149-.05-.263-.05-.116 0-.207.026-.272.079-.067.052-.121.148-.162.292m.86.637c-.083.033-.21.072-.383.117-.199.052-.329.109-.391.173-.061.063-.091.145-.091.245 0 .113.033.209.101.286.069.078.154.116.257.116.09 0 .181-.03.271-.093.088-.062.15-.136.186-.222.034-.086.052-.241.052-.466v-.156h-.002m5.829 1.424h-.737l-.293-.93h-1.339l-.276.93h-.721l1.307-4.093h.717l1.342 4.093m-1.247-1.619l-.461-1.519-.455 1.519h.916m2 1.619v-4.093h.644v4.093h-.644m1.704-3.367v-.727h.645v.727h-.645m0 3.367v-2.964h.645v2.964h-.645m1.654-2.965h.592v.404c.106-.158.222-.277.349-.354.126-.079.263-.118.411-.118.156 0 .291.04.406.118.114.078.208.196.28.354.108-.158.224-.277.348-.354.124-.078.255-.118.395-.118.166 0 .308.041.428.12.12.079.211.192.274.339.063.146.094.372.094.678v1.895h-.645v-1.694c0-.296-.026-.493-.078-.591-.052-.097-.141-.146-.262-.146-.144 0-.259.069-.347.206-.088.136-.13.404-.13.803v1.423h-.646v-1.624c0-.323-.018-.53-.053-.623-.047-.123-.141-.185-.282-.185-.095 0-.183.031-.262.095-.08.063-.138.156-.173.277-.036.122-.053.329-.053.619v1.44h-.645v-2.964h-.0001m6.03 2.02l.64.13c-.086.298-.219.52-.399.664-.181.145-.4.216-.658.216-.359 0-.636-.12-.833-.36-.231-.279-.346-.67-.346-1.172 0-.496.116-.892.349-1.189.197-.251.453-.377.765-.377.348 0 .621.129.818.386.227.293.34.727.34 1.3l-.003.09h-1.61c.004.234.057.415.158.544.102.128.224.192.367.192.206 0 .345-.142.412-.424m.037-.792c-.005-.231-.055-.405-.147-.521-.094-.116-.204-.174-.333-.174-.136 0-.251.062-.343.182-.095.123-.142.293-.14.514h.963m3.772 1.735h-.645v-1.513c0-.303-.012-.505-.037-.606-.023-.1-.07-.177-.135-.231-.066-.053-.141-.081-.225-.081-.107 0-.206.036-.293.105-.087.069-.149.166-.184.289-.036.123-.054.354-.054.695v1.343h-.644v-2.964h.597v.436c.106-.167.226-.293.358-.377.133-.084.28-.126.442-.126.189 0 .347.05.477.147s.218.223.268.377.074.375.074.665v1.841h.0001m2.166-2.965v.625h-.438v1.194c0 .258.005.409.019.449.026.075.079.112.159.112.06 0 .145-.025.257-.075l.056.608c-.149.078-.317.117-.505.117-.164 0-.295-.039-.394-.117-.099-.079-.165-.191-.199-.338-.026-.108-.039-.328-.039-.659v-1.292h-.296v-.625h.296v-.589l.646-.458v1.047h.438v.0001m.851 2.965v-2.964h.644v2.964h-.644m-.004-3.328l.315-.834h.723l-.63.834h-.408m3.826 1.24l-.634.139c-.047-.311-.193-.466-.438-.466-.159 0-.287.067-.382.201-.098.133-.146.36-.146.678 0 .352.049.601.146.745.095.145.225.218.387.218.121 0 .22-.041.298-.124.079-.083.134-.23.167-.44l.633.131c-.129.714-.505 1.072-1.124 1.072-.396 0-.691-.151-.883-.452-.191-.302-.288-.665-.288-1.089 0-.507.109-.895.325-1.159.217-.265.501-.399.853-.399.285 0 .518.076.697.227.182.151.311.39.389.718m.89-1.279v-.727h.643v.727h-.643m0 3.367v-2.964h.643v2.964h-.643m2.184-2.061l-.583-.128c.071-.299.188-.514.35-.646.163-.131.397-.197.702-.197.272 0 .479.039.623.115.143.076.245.18.307.311.062.131.093.37.093.716l-.006.916c0 .256.011.448.03.574.021.125.059.259.114.4h-.636l-.084-.324c-.11.13-.227.227-.352.293-.126.065-.259.097-.401.097-.236 0-.43-.079-.581-.238-.15-.16-.226-.371-.226-.636 0-.167.03-.313.092-.438.062-.125.148-.224.26-.298.112-.074.291-.141.535-.198.299-.068.506-.133.624-.192 0-.165-.012-.271-.036-.323-.023-.05-.065-.092-.128-.125-.062-.033-.149-.05-.263-.05-.116 0-.207.026-.272.079-.067.052-.121.148-.162.292m.86.637c-.083.033-.21.072-.383.117-.199.052-.329.109-.391.173-.061.063-.091.145-.091.245 0 .113.033.209.101.287.069.077.153.115.256.115.09 0 .181-.03.271-.093.088-.062.15-.136.186-.222.034-.086.052-.241.052-.466v-.156h-.0001m2.804.092l.661-.079c.075.523.318.785.732.785.204 0 .365-.053.482-.161.118-.106.176-.239.176-.397 0-.093-.02-.172-.061-.237-.041-.066-.104-.12-.188-.162-.084-.042-.286-.111-.608-.209-.289-.088-.5-.183-.633-.286-.135-.102-.242-.236-.321-.403-.079-.167-.118-.346-.118-.538 0-.223.05-.424.151-.603.102-.178.242-.314.42-.405.179-.091.399-.136.662-.136.395 0 .702.107.923.321.223.213.339.52.352.918l-.677.036c-.031-.22-.095-.374-.193-.461-.099-.086-.239-.13-.422-.13-.182 0-.322.039-.42.114-.099.076-.148.17-.148.285 0 .111.044.205.134.281.09.077.296.16.617.252.341.099.587.203.738.312.151.108.268.25.347.421.081.172.121.381.121.626 0 .355-.11.654-.328.896-.219.243-.561.363-1.026.363-.823.0001-1.282-.467-1.373-1.403m3.35 1.401l.832-4.231h.483l-.84 4.231h-.475m5.076-.069h-.736l-.293-.93h-1.339l-.276.93h-.72l1.307-4.093h.717l1.34 4.093m-1.247-1.619l-.461-1.519-.455 1.519h.916"/><path d="m66.32 95.35c.125.356.156.55.156 1.068v12.883c0 3.463-1.803 5.406-5.064 5.406-2.983 0-4.724-1.813-4.724-5.02v-13.271c0-.453.031-.68.156-1.068h-5.5c.124.421.155.647.155 1.068v12.98c0 5.05 3.076 7.904 8.483 7.904 5.655 0 8.824-2.821 8.824-7.807v-13.08c0-.453.031-.68.156-1.068h-2.642m4.4 4.208c.125.389.155.615.155 1.068v15.278c0 .454-.031.68-.155 1.069h5.127c-.124-.356-.156-.583-.156-1.069v-10.422c0-1.781.995-2.881 2.642-2.881 1.429 0 2.175.81 2.175 2.396v10.908c0 .519-.032.712-.156 1.069h5.127c-.124-.389-.155-.647-.155-1.069v-11.912c0-1.457-.28-2.427-.901-3.205-.838-1.068-2.33-1.684-3.977-1.684-2.175 0-3.667.712-4.878 2.396v-1.942h-4.848m17 0c.124.356.156.583.156 1.068v15.278c0 .421-.032.68-.156 1.069h5.127c-.125-.389-.155-.647-.155-1.069v-15.278c0-.486.03-.712.155-1.068h-5.127m17.285 17.415h4.878c-.124-.389-.155-.647-.155-1.068v-21.14c0-.453.031-.679.155-1.067l-4.97-.017c.159.599-.002 5.129-.002 7.17-1.056-1.23-2.175-1.748-3.853-1.748-3.915 0-6.246 3.334-6.246 8.967 0 2.687.497 4.887 1.492 6.636 1.025 1.78 2.423 2.595 4.443 2.595 1.864 0 2.983-.588 4.257-2.271v1.941m56.48-23.274c.125.389.155.615.155 1.068v21.14c0 .421-.031.68-.155 1.068h5.127c-.125-.389-.156-.615-.156-1.068v-21.14c0-.485.031-.712.156-1.068h-5.127m-6.939 23.274h4.878c-.125-.42-.156-.68-.156-1.068v-15.278c0-.551.031-.745.156-1.068h-5.159c.155.356.187.583.187 1.068v10.584c0 1.554-1.025 2.59-2.579 2.59-1.429 0-2.206-.842-2.206-2.395v-10.779c0-.518.031-.712.156-1.068h-5.127c.124.389.155.647.155 1.068v11.427c0 3.463 1.678 5.249 4.94 5.249 2.113 0 3.418-.62 4.754-2.271v1.941h.0001m-25.773-4.639c-.466.388-3.125 1.856-3.404 1.856-.528 0-.839-.453-.839-1.198v-9.549c0-2.816-2.051-4.338-5.935-4.338-2.206 0-3.884.324-6.152 1.263l.59 2.816c1.678-1.263 2.58-1.651 4.04-1.651 1.584 0 2.641.842 2.641 2.137 0 1.165-.59 1.78-2.144 2.266-3.201.971-3.791 1.23-4.848 2.137-1.149.938-1.771 2.395-1.771 4.11 0 3.14 1.741 5.12 4.475 5.12 1.958 0 3.169-.556 4.505-2.045.777 1.554 1.553 2.045 3.263 2.045 1.242 0 2.863-.819 4.167-1.666.443.238.308.166.734.361 2.088.954 3.826 1.305 6.06 1.305 5.681 0 9.07-2.945 9.07-7.814 0-3.442-1.532-5.373-5.48-6.884-2.418-.966-3.103-1.217-3.465-1.427-.846-.503-1.209-1.091-1.209-1.931 0-1.553 1.33-2.645 3.304-2.645 1.733 0 3.184.588 5.318 2.183l.886-3.652c-2.578-1.01-4.673-1.427-6.849-1.427-5.077 0-8.542 2.981-8.542 7.388 0 3.106 1.491 5.04 4.916 6.507 2.257.923 3.465 1.469 3.667 1.595 1.128.629 1.612 1.343 1.612 2.351 0 1.595-1.371 2.771-3.264 2.771-1.983 0-2.903.072-4.922-1.556-.135-.108-.192-.167-.276-.252-.043-.047-.087-.103-.146-.176m-9.06-5.04v4.306c0 1.457-.963 2.525-2.299 2.525-1.181 0-1.926-.939-1.926-2.364 0-1.424.808-2.751 2.02-3.367l1.709-.809.496-.291m-17.195-5.567c1.771 0 2.61 1.975 2.61 6.183 0 2.201-.218 3.916-.621 4.92-.373.874-1.243 1.521-2.051 1.521-.838 0-1.678-.647-1.988-1.521-.404-1-.59-2.622-.59-4.726-.0001-4.338.838-6.377 2.64-6.377"/></g><path fill="#293947" d="M1,110l109,109l109-109L110,1L1,110z M218.009,110L110,218.009L1.991,110L110,1.991L218.009,110z"/><g fill="#fff"><path d="m110.5 0h1v1h-1z"/><path d="m108.5 0h1v1h-1z"/><path d="m109.5 1h1v1h-1z"/><path d="m108.5 2h1v1h-1z"/><path d="m110.5 2h1v1h-1z"/><path d="m110.5 217h1v1h-1z"/><path d="m108.5 217h1v1h-1z"/><path d="m109.5 218h1v1h-1z"/><path d="m108.5 219h1v1h-1z"/><path d="m110.5 219h1v1h-1z"/><path d="m2 108.5h1v1h-1z"/><path d="m0 108.5h1v1h-1z"/><path d="m1 109.5h1v1h-1z"/><path d="m0 110.5h1v1h-1z"/><path d="m2 110.5h1v1h-1z"/><path d="m219 108.5h1v1h-1z"/><path d="m217 108.5h1v1h-1z"/><path d="m218 109.5h1v1h-1z"/><path d="m217 110.5h1v1h-1z"/><path d="m219 110.5h1v1h-1z"/></g></svg>