<svg xmlns="http://www.w3.org/2000/svg" viewBox="0 0 220 220" enable-background="new 0 0 220 220"><g fill="#fff" fill-rule="evenodd"><path d="m138.34 117.11c-.093-2.6-1.68-4.959-4.157-5.527-2.477-.569-7.563-.569-12.296.405l.53 5.123c0 0 4.03-.854 6.02-.854 1.989 0 3.03.204 3.03 1.139 0 .589-.015 1.177-.029 1.765 0 0-2.254-.081-5.407.325-4 .517-4.467 3.99-4.467 5.781s.248 6.31 6.351 6.31c6.104 0 10.446-4.03 10.446-4.03l-.017-10.437m-28.07-9.161c1.889-.299 4.236-.555 6.206-.652-.108 1.546-.219 3.496-.308 5.552.599-.048 1.272-.145 1.933-.253l.295 5.058c-.755.083-1.663.146-2.389.186-.052 2.601-.039 4.995.081 6.57.101 1.313 1.626 1.609 2.604.764l.239 3.914c-.656 1.065-2.517 2.488-4.953 2.488-2.912 0-3.957-1.465-4-3.74-.135-6.629-.042-13.259.294-19.887m-62.901 3.575c2.435-.128 4.868-.114 7.304 0 0 0 1.512 8.637 2.927 15.08h1.076c0 0 1.445-6.391 2.888-15.04 2.444-.128 4.888-.114 7.33 0 0 0-1.668 8.929-4.699 20.01-4.046.398-8.091.448-12.14 0 0 .0001-2.449-8.468-4.686-20.05m40.2 2.103c0 0-2.924-2.109-7.779-2.388-3.693-.212-6.49.344-7.83 2.211-1.534 2.135-1.199 7.279-1.022 12.211.095 2.6 1.682 4.959 4.16 5.529 2.477.569 7.563.569 12.295-.407l-.53-5.122c0 0-4.03.854-6.02.854-1.991 0-3.317-.204-3.317-1.139 0-.935.619-1.422 3.538-2.074 2.919-.649 4.708-1.247 5.705-3.211.912-1.795.796-6.464.796-6.464m-10.236 5.667c-.132-.963-.219-2.407.393-3.052.727-.767 2.497-.859 3.729-.199-.038.561-.046 2.168-1.111 2.486-1.328.397-2.75.731-3.01.765m13.425-5.731c0 0 3.127-2.367 8.04-2.367 4.735 0 7.548.939 7.548.939l-.357 5.184c0 0-6.745-2.042-8.529-.532 0 0-.091 1.101 1.562 1.55 1.653.449 5.718 1.427 6.922 2.204 1.207.775 1.607 2.204 1.607 5.1 0 2.612-1.697 4.979-4.197 5.55-2.499.571-7.636.571-12.413-.408l.536-5.142c0 0 4.063.856 6.072.856s3.35-.203 3.35-1.142c0-.938-.627-1.427-3.572-2.08-2.947-.653-4.753-1.253-5.762-3.224-.923-1.804-.806-6.488-.806-6.488m40.673 9.18c0 0 0 1.873 0 2.402 0 .529-.287 1.384-1.558 1.384-1.27 0-1.639-.773-1.639-1.872.0001-1.099.78-2.036 3.197-1.914"/><path d="m151.55 109.23c0 0-6.757-4.241-6.825-8.298-.099-5.761 4.851-6.754 4.851-10.957-1.092 2.249-2.423 1.16-3.619 3.066-1.22-1.08-.604-2.544-1.521-3.512 1.753.364 2.131-1.346 3.03-1.435-2.265-.913-4.227 2.736-6.606 2.452-2.02-.242-2.688-2.925-2.566-4.606 0 0 .939 1.77 2.41 2.255 1.305.431 2.278-.131 3.357-.76l-.638-.757c-.459.101-.94.022-1.465-.375-1.273-.97-1-2.549-1.821-3.213.595-4.584 10.891-6.968 11.902-12.322.368.404.947 1.226.936 2.335.195-1.083.878-1.676 1.454-2.059-.024.489.063 2.153 1.108 3.041 0 0 .64-1.01 2.059-1.366 1.578 2.367-.25 5.139 2 6.684 2.091 1.432 2.258 4.07 2.258 4.07 1.043 1.062 2.684.885 3.724.136.08 1.989-1.594 3.089-3.343 2.831 0 0-1.5 6.68 4.389 8.152-3.457 3.292-5.604 1.282-7.04-1.06-.1 7.441-9.798 7.775-8.04 15.698m-3.65-30.54c-.162.037-.311.076-.449.119.265.859-.849 1.583-1.29.696 0-.002-.0001-.005-.0001-.008-.264.252-.411.617-.411.617s.888.403 1.614-.059c.728-.463.537-1.365.537-1.365m-3.703 8.667c2.199-1.217 3.651-.365 3.651-.365-.724-.725-.127-1.755-1.243-2.131-.465 1.278-1.928.876-2.38 1.474-.164.338-.186.682-.028 1.022"/></g><path fill="#293947" d="M1,110l109,109l109-109L110,1L1,110z M218.009,110L110,218.009L1.991,110L110,1.991L218.009,110z"/><g fill="#fff"><path d="m110.5 0h1v1h-1z"/><path d="m108.5 0h1v1h-1z"/><path d="m109.5 1h1v1h-1z"/><path d="m108.5 2h1v1h-1z"/><path d="m110.5 2h1v1h-1z"/><path d="m110.5 217h1v1h-1z"/><path d="m108.5 217h1v1h-1z"/><path d="m109.5 218h1v1h-1z"/><path d="m108.5 219h1v1h-1z"/><path d="m110.5 219h1v1h-1z"/><path d="m2 108.5h1v1h-1z"/><path d="m0 108.5h1v1h-1z"/><path d="m1 109.5h1v1h-1z"/><path d="m0 110.5h1v1h-1z"/><path d="m2 110.5h1v1h-1z"/><path d="m219 108.5h1v1h-1z"/><path d="m217 108.5h1v1h-1z"/><path d="m218 109.5h1v1h-1z"/><path d="m217 110.5h1v1h-1z"/><path d="m219 110.5h1v1h-1z"/></g></svg>