<svg xmlns="http://www.w3.org/2000/svg" viewBox="0 0 220 220" enable-background="new 0 0 220 220"><path fill="#fff" d="m130.03 130.88l.654-.06.713-.059.712-.119.654-.12.713-.238.594-.237.653-.297.595-.297.594-.416.535-.356.535-.416.475-.476.535-.535.416-.535.357-.595.476-.594v6.181l-.06.594-.119.654-.179.594-.178.594-.297.535-.297.535-.356.535-.417.416-.475.417-.476.356-.535.356-.595.238-.535.238-.653.178-.594.059h-.713-7.01v-8.08l1.07.416 1.01.297 1.069.178.535.06h.596zm-11.528-4.278l-5.586-7.607 5.586-7.547v15.15m15.03-7.31v.535l-.059.416-.119.476-.119.416-.119.416-.238.356-.238.357-.237.356-.297.238-.237.297-.357.238-.297.179-.416.178-.356.06-.357.119h-.417-.356l-.476-.119-.297-.06-.357-.178-.356-.179-.297-.238-.356-.297-.238-.238-.297-.356-.238-.357-.119-.356-.178-.416-.178-.416-.12-.416-.059-.476v-.535-.416l.059-.476.12-.416.119-.417.238-.475.119-.356.238-.297.297-.357.238-.297.356-.297.297-.178.356-.237.297-.178.356-.12.476-.06h.356.417l.357.06.356.12.416.178.297.237.357.178.237.297.297.297.237.357.238.297.238.356.119.475.119.417.119.416.059.417v.475m-.772-33.518l-45.583.06h-.654l-.653.119-.594.178-.594.238-.536.238-.534.356-.476.357-.476.356-.416.475-.356.476-.357.594-.237.535-.238.595-.178.535-.059.654-.06.653v39.521l.06.654.119.594.178.653.238.536.237.594.357.535.297.475.416.476.476.416.535.297.475.356.595.238.595.238.594.178.654.059.653.06 31.32-.06-.06-7.548-5.705.06-4.101-5.646-4.1 5.646h-8.677l8.498-11.469-8.02-10.875h8.617l3.685 5.05 3.625-5.05h10.1l1.01 1.961.713-.535.772-.535.832-.357.772-.297.892-.297.833-.179.891-.118h.892.654l.713.059.712.119.654.178.653.178.654.238.653.297.595.356.535.356.595.416.475.417.535.475.476.476.475.535.357.534.416.595v-20.92-.654l-.119-.594-.179-.594-.178-.594-.297-.535-.297-.535-.416-.535-.357-.416-.475-.417-.535-.356-.535-.357-.535-.178-.594-.238-.594-.178-.654-.119-.655-.059"/><path fill="#293947" d="M1,110l109,109l109-109L110,1L1,110z M218.009,110L110,218.009L1.991,110L110,1.991L218.009,110z"/><g fill="#fff"><path d="m110.5 0h1v1h-1z"/><path d="m108.5 0h1v1h-1z"/><path d="m109.5 1h1v1h-1z"/><path d="m108.5 2h1v1h-1z"/><path d="m110.5 2h1v1h-1z"/><path d="m110.5 217h1v1h-1z"/><path d="m108.5 217h1v1h-1z"/><path d="m109.5 218h1v1h-1z"/><path d="m108.5 219h1v1h-1z"/><path d="m110.5 219h1v1h-1z"/><path d="m2 108.5h1v1h-1z"/><path d="m0 108.5h1v1h-1z"/><path d="m1 109.5h1v1h-1z"/><path d="m0 110.5h1v1h-1z"/><path d="m2 110.5h1v1h-1z"/><path d="m219 108.5h1v1h-1z"/><path d="m217 108.5h1v1h-1z"/><path d="m218 109.5h1v1h-1z"/><path d="m217 110.5h1v1h-1z"/><path d="m219 110.5h1v1h-1z"/></g></svg>